<?xml version="1.0" encoding="UTF-8"?>
<svg xmlns="http://www.w3.org/2000/svg" xmlns:xlink="http://www.w3.org/1999/xlink" width="200px" height="200px" viewBox="0 0 200 200" version="1.1">
<g id="surface1">
<path style=" stroke:none;fill-rule:evenodd;fill:rgb(79.607843%,70.196078%,41.960784%);fill-opacity:1;" d="M 104.300781 37.800781 C 98.894531 38.210938 93.617188 42.816406 92.261719 48.304688 C 91.964844 49.507812 91.859375 49.679688 91.273438 49.925781 C 90.171875 50.382812 89.871094 50.277344 89.027344 49.136719 C 82.132812 39.804688 67.398438 44.546875 67.398438 56.101562 C 67.398438 61.332031 70.089844 65.378906 74.84375 67.292969 C 76.457031 67.941406 76.5 67.976562 76.5625 68.679688 C 76.671875 69.957031 75.230469 70.152344 72.800781 69.195312 C 71.523438 68.691406 69.398438 68.367188 69.398438 68.679688 C 69.398438 68.726562 70.027344 70.074219 70.796875 71.679688 C 72.328125 74.882812 72.601562 75.121094 73.40625 73.992188 C 73.824219 73.40625 73.886719 73.382812 75.171875 73.441406 L 76.5 73.5 L 76.550781 81.050781 L 76.605469 88.601562 L 118.800781 88.601562 L 118.800781 63.800781 L 117.394531 63.800781 C 115.523438 63.800781 115.410156 63.511719 116.746094 62.132812 C 123.398438 55.25 121.589844 43.730469 113.167969 39.339844 C 110.515625 37.960938 107.984375 37.519531 104.300781 37.800781 M 109.171875 44.945312 C 112.46875 46.445312 114.320312 50.316406 113.316406 53.625 C 111.265625 60.382812 102.390625 61.15625 99.371094 54.839844 C 96.445312 48.726562 102.980469 42.128906 109.171875 44.945312 M 104.636719 46.808594 C 103.851562 47.539062 104.328125 48.800781 105.386719 48.800781 C 106.082031 48.800781 106.464844 48.367188 106.464844 47.585938 C 106.464844 46.523438 105.417969 46.078125 104.636719 46.808594 M 108.25 49.097656 C 107.472656 49.984375 108.578125 51.546875 109.597656 51 C 110.710938 50.40625 110.378906 48.792969 109.144531 48.808594 C 108.789062 48.8125 108.386719 48.941406 108.25 49.097656 M 81.523438 50.027344 C 86.273438 51.804688 86.617188 58.847656 82.058594 60.984375 C 81.75 61.128906 81.34375 61.324219 81.152344 61.421875 C 80.019531 62 77.085938 61.457031 75.597656 60.398438 C 72.273438 58.03125 72.820312 51.914062 76.5 50.316406 C 76.828125 50.171875 77.324219 49.957031 77.601562 49.839844 C 78.449219 49.476562 80.289062 49.566406 81.523438 50.027344 M 101.984375 49.859375 C 100.910156 50.675781 101.296875 51.988281 102.609375 51.996094 C 103.289062 52 103.601562 51.652344 103.601562 50.882812 C 103.601562 49.96875 102.640625 49.359375 101.984375 49.859375 M 78.113281 51.714844 C 77.472656 52.355469 77.972656 53.273438 78.910156 53.167969 C 79.386719 53.113281 79.511719 52.992188 79.566406 52.539062 C 79.679688 51.53125 78.796875 51.03125 78.113281 51.714844 M 108.199219 53.144531 C 107.457031 53.429688 107.367188 54.636719 108.054688 55.089844 C 109.15625 55.8125 110.4375 54.417969 109.515625 53.496094 C 109.019531 53 108.761719 52.929688 108.199219 53.144531 M 81.132812 53.566406 C 80.664062 54.082031 80.71875 54.539062 81.300781 54.917969 C 82.28125 55.5625 83.300781 54.316406 82.433594 53.53125 C 81.960938 53.101562 81.542969 53.113281 81.132812 53.566406 M 103.398438 54.199219 C 102.917969 54.679688 102.898438 54.96875 103.3125 55.554688 C 103.898438 56.394531 105.398438 55.890625 105.398438 54.855469 C 105.398438 54.460938 104.648438 53.800781 104.199219 53.800781 C 103.980469 53.800781 103.621094 53.980469 103.398438 54.199219 M 75.839844 54.238281 C 75.160156 54.921875 75.957031 56.25 76.78125 55.808594 C 77.429688 55.464844 77.566406 54.792969 77.085938 54.316406 C 76.710938 53.941406 76.171875 53.90625 75.839844 54.238281 M 80.652344 57.191406 C 80.132812 58.023438 81.074219 58.859375 81.914062 58.308594 C 82.75 57.761719 82.429688 56.800781 81.40625 56.800781 C 81.117188 56.800781 80.789062 56.96875 80.652344 57.191406 M 77.246094 57.511719 C 76.511719 58.023438 76.921875 59.199219 77.835938 59.199219 C 78.222656 59.199219 78.800781 58.566406 78.800781 58.144531 C 78.800781 57.863281 78.101562 57.199219 77.800781 57.199219 C 77.738281 57.199219 77.488281 57.339844 77.246094 57.511719 M 94.132812 60.050781 C 94.425781 60.515625 95.160156 61.414062 95.757812 62.042969 C 97.390625 63.757812 97.324219 63.800781 93.046875 63.800781 C 88.679688 63.800781 88.777344 63.863281 89.886719 61.730469 C 90.355469 60.832031 90.777344 59.972656 90.828125 59.820312 C 90.878906 59.664062 91.320312 59.472656 91.808594 59.394531 C 93.488281 59.121094 93.558594 59.144531 94.132812 60.050781 M 129.003906 64.515625 L 125.503906 66.601562 L 119.800781 66.601562 L 119.800781 77.398438 L 122.351562 77.40625 C 125.347656 77.410156 125.175781 77.347656 129.5 79.972656 L 132.5 81.789062 L 132.554688 76.882812 C 132.582031 74.179688 132.582031 69.824219 132.554688 67.203125 L 132.5 62.429688 L 129.003906 64.515625 M 115.671875 83.816406 C 116.777344 84.683594 116.09375 86.601562 114.679688 86.601562 C 113.550781 86.601562 112.757812 85.03125 113.449219 84.164062 C 114.097656 83.347656 114.917969 83.21875 115.671875 83.816406 M 83.601562 93.222656 C 78.273438 94.085938 75.664062 97.59375 75.460938 104.15625 C 75.207031 112.304688 79.910156 117.023438 87.253906 115.996094 C 93.183594 115.164062 95.894531 111.804688 96.140625 104.992188 C 96.4375 96.734375 91.355469 91.96875 83.601562 93.222656 M 47.398438 104.601562 L 47.398438 115.800781 L 54.398438 115.800781 L 54.398438 111.300781 C 54.398438 107.042969 54.476562 106.457031 54.949219 107.050781 C 55.183594 107.339844 57.800781 112.027344 57.800781 112.152344 C 57.800781 112.832031 58.707031 113.398438 59.789062 113.398438 C 61.136719 113.398438 61.003906 113.527344 62.410156 110.898438 C 62.996094 109.800781 63.710938 108.472656 63.988281 107.953125 C 65.042969 105.996094 65.199219 106.445312 65.199219 111.398438 L 65.199219 115.800781 L 72.199219 115.800781 L 72.199219 93.398438 L 65.839844 93.398438 L 62.96875 99.148438 C 61.261719 102.574219 59.972656 104.921875 59.789062 104.957031 C 59.5625 105 58.695312 103.4375 56.597656 99.207031 L 53.714844 93.398438 L 47.398438 93.398438 L 47.398438 104.601562 M 98.601562 93.585938 C 98.601562 93.695312 98.699219 94.03125 98.824219 94.339844 C 99.167969 95.191406 99.296875 95.53125 100.160156 97.800781 C 100.601562 98.953125 101.429688 101.113281 102 102.601562 C 102.570312 104.085938 103.472656 106.425781 104 107.800781 C 104.53125 109.175781 105.445312 111.539062 106.03125 113.050781 L 107.101562 115.804688 L 110.570312 115.753906 L 114.042969 115.699219 L 114.738281 113.898438 C 115.121094 112.910156 115.511719 111.921875 115.597656 111.699219 C 115.691406 111.480469 116.222656 110.109375 116.78125 108.648438 C 117.339844 107.191406 118.242188 104.851562 118.78125 103.449219 C 119.320312 102.046875 120.09375 100.046875 120.503906 99 C 120.914062 97.953125 121.5 96.425781 121.804688 95.601562 C 122.109375 94.773438 122.421875 93.941406 122.5 93.75 C 122.632812 93.425781 122.390625 93.398438 119.023438 93.398438 C 116.257812 93.398438 115.402344 93.460938 115.402344 93.648438 C 115.402344 93.789062 115.132812 94.597656 114.800781 95.449219 C 114.242188 96.894531 113.933594 97.707031 112.417969 101.75 C 110.609375 106.585938 110.601562 106.59375 109.835938 104.699219 C 109.054688 102.761719 109.261719 103.3125 107.199219 97.699219 C 106.632812 96.160156 106.050781 94.585938 105.90625 94.199219 L 105.644531 93.5 L 102.121094 93.445312 C 99.929688 93.410156 98.601562 93.464844 98.601562 93.585938 M 125.199219 104.601562 L 125.199219 115.800781 L 132 115.800781 L 132 93.398438 L 125.199219 93.398438 L 125.199219 104.601562 M 135.601562 104.601562 L 135.601562 115.800781 L 152.601562 115.800781 L 152.601562 110.601562 L 147.707031 110.601562 C 142.121094 110.601562 142.398438 110.695312 142.398438 108.800781 C 142.398438 106.90625 142.121094 107 147.707031 107 L 152.601562 107 L 152.601562 102.199219 L 147.816406 102.199219 C 142.214844 102.199219 142.398438 102.265625 142.398438 100.324219 C 142.398438 98.527344 142.175781 98.601562 147.738281 98.601562 L 152.601562 98.601562 L 152.601562 93.398438 L 135.601562 93.398438 L 135.601562 104.601562 M 87.0625 99.226562 C 90.863281 101.179688 89.871094 110.199219 85.855469 110.199219 C 83.488281 110.199219 82.199219 108.203125 82.203125 104.546875 C 82.210938 100.375 84.476562 97.894531 87.0625 99.226562 M 132.5 123.28125 C 129.878906 123.726562 128.601562 124.898438 128.601562 126.855469 C 128.601562 128.792969 130.109375 129.746094 135.164062 131 C 136.96875 131.445312 136.992188 132.90625 135.199219 133.003906 C 133.546875 133.09375 133.175781 133.003906 132.550781 132.382812 C 131.902344 131.734375 131.828125 131.726562 130.125 132.167969 C 128.960938 132.46875 128.914062 132.625 129.644531 133.71875 C 131.792969 136.933594 138.886719 136.550781 139.890625 133.167969 C 140.351562 131.613281 139.832031 130.386719 138.359375 129.566406 C 137.574219 129.125 136.957031 128.914062 133.566406 127.910156 C 131.515625 127.300781 131.894531 125.800781 134.097656 125.800781 C 134.796875 125.800781 136.398438 126.460938 136.402344 126.753906 C 136.414062 127.21875 136.757812 127.394531 137.3125 127.226562 C 137.636719 127.128906 138.285156 126.929688 138.753906 126.789062 C 140.558594 126.246094 138.515625 123.875 135.730469 123.277344 C 134.296875 122.96875 134.324219 122.96875 132.5 123.28125 M 48.601562 129.601562 L 48.601562 135.800781 L 52.199219 135.800781 L 52.199219 133.617188 C 52.199219 130.570312 51.964844 130.800781 55.121094 130.800781 L 57.800781 130.800781 L 57.800781 128.210938 L 52.300781 128.101562 L 52.234375 127.527344 C 52.0625 126.023438 52.109375 126 55.105469 126 L 57.800781 126 L 57.800781 123.398438 L 48.601562 123.398438 L 48.601562 129.601562 M 64.101562 123.597656 C 64.035156 123.703125 63.8125 124.265625 63.609375 124.847656 C 63.253906 125.839844 62.726562 127.265625 61.382812 130.851562 C 60.414062 133.433594 59.601562 135.65625 59.601562 135.730469 C 59.601562 135.769531 60.363281 135.800781 61.296875 135.800781 L 62.992188 135.800781 L 63.445312 134.851562 L 63.898438 133.898438 L 68.300781 133.898438 L 68.769531 134.851562 L 69.242188 135.800781 L 70.921875 135.800781 C 71.84375 135.800781 72.597656 135.734375 72.597656 135.648438 C 72.59375 135.480469 72.300781 134.644531 71.390625 132.199219 C 71.046875 131.265625 70.59375 130.050781 70.390625 129.5 C 69.457031 126.960938 68.808594 125.222656 68.476562 124.351562 L 68.113281 123.398438 L 66.167969 123.398438 C 65.097656 123.398438 64.167969 123.488281 64.101562 123.597656 M 74.199219 129.601562 L 74.199219 135.800781 L 78 135.800781 L 78 132.898438 C 78 129.105469 78.117188 129.136719 80.699219 133.679688 L 81.898438 135.789062 L 83.449219 135.792969 L 85 135.800781 L 85 123.398438 L 81.398438 123.398438 L 81.398438 125.949219 C 81.394531 128.800781 81.226562 129.402344 80.65625 128.601562 C 80.289062 128.085938 79.09375 126.140625 78.96875 125.859375 C 78.929688 125.769531 78.597656 125.183594 78.230469 124.550781 L 77.5625 123.398438 L 74.199219 123.398438 L 74.199219 129.601562 M 91.300781 123.597656 C 91.234375 123.703125 91.011719 124.265625 90.808594 124.847656 C 90.457031 125.839844 89.929688 127.265625 88.582031 130.851562 C 87.613281 133.433594 86.800781 135.65625 86.800781 135.730469 C 86.800781 135.769531 87.5625 135.800781 88.496094 135.800781 L 90.191406 135.800781 L 90.644531 134.851562 L 91.101562 133.898438 L 95.5 133.898438 L 95.972656 134.851562 L 96.441406 135.800781 L 98.121094 135.800781 C 99.042969 135.800781 99.796875 135.734375 99.796875 135.648438 C 99.792969 135.480469 99.503906 134.644531 98.59375 132.199219 C 98.246094 131.265625 97.792969 130.050781 97.589844 129.5 C 96.65625 126.960938 96.007812 125.222656 95.675781 124.351562 L 95.3125 123.398438 L 93.367188 123.398438 C 92.300781 123.398438 91.367188 123.488281 91.300781 123.597656 M 101.398438 129.601562 L 101.398438 135.800781 L 104.851562 135.792969 C 109.566406 135.78125 111.160156 135.375 112.160156 133.917969 C 113.046875 132.621094 112.519531 130.5 111.140625 129.839844 C 110.453125 129.507812 110.460938 129.3125 111.199219 128.46875 C 112.03125 127.523438 112.070312 125.695312 111.289062 124.667969 C 110.417969 123.527344 109.832031 123.398438 105.375 123.398438 L 101.398438 123.398438 L 101.398438 129.601562 M 118.601562 123.632812 C 118.601562 123.882812 116.652344 129.171875 114.800781 133.949219 C 114.46875 134.800781 114.199219 135.566406 114.199219 135.648438 C 114.199219 135.734375 115.011719 135.800781 116 135.800781 C 117.582031 135.800781 117.800781 135.757812 117.800781 135.449219 C 117.800781 135.257812 117.980469 134.808594 118.199219 134.449219 L 118.59375 133.800781 L 120.648438 133.804688 C 123.007812 133.804688 123.09375 133.839844 123.441406 134.90625 L 123.699219 135.699219 L 127.378906 135.816406 L 126.808594 134.359375 C 126.273438 132.988281 125.9375 132.085938 125.019531 129.550781 C 124.8125 128.972656 124.367188 127.78125 124.035156 126.898438 C 123.703125 126.019531 123.277344 124.871094 123.089844 124.351562 L 122.746094 123.398438 L 120.671875 123.398438 C 119.234375 123.398438 118.601562 123.472656 118.601562 123.632812 M 142.199219 129.601562 L 142.199219 135.800781 L 151.398438 135.800781 L 151.398438 133.011719 L 148.648438 132.957031 L 145.898438 132.898438 L 145.835938 132.324219 C 145.664062 130.824219 145.707031 130.800781 148.703125 130.800781 L 151.398438 130.800781 L 151.398438 128.210938 L 145.898438 128.101562 L 145.835938 127.527344 C 145.664062 126.023438 145.707031 126 148.703125 126 L 151.398438 126 L 151.398438 123.398438 L 142.199219 123.398438 L 142.199219 129.601562 M 107.894531 126.234375 C 109.414062 126.925781 108.53125 128.242188 106.613281 128.160156 L 105.300781 128.101562 L 105.238281 127.21875 C 105.152344 126.015625 106.398438 125.550781 107.894531 126.234375 M 66.722656 128.609375 C 66.875 129.097656 67.085938 129.753906 67.1875 130.066406 C 67.496094 130.984375 67.285156 131.199219 66.078125 131.199219 C 64.867188 131.199219 64.777344 131.035156 65.222656 129.613281 C 65.921875 127.382812 66.269531 127.152344 66.722656 128.609375 M 93.921875 128.609375 C 94.074219 129.097656 94.285156 129.753906 94.386719 130.066406 C 94.695312 130.984375 94.484375 131.199219 93.277344 131.199219 C 92.066406 131.199219 91.976562 131.035156 92.425781 129.613281 C 93.125 127.382812 93.46875 127.152344 93.921875 128.609375 M 121.433594 128.902344 C 122.066406 131.003906 122 131.199219 120.675781 131.199219 L 119.546875 131.199219 L 119.652344 130.550781 C 120.144531 127.53125 120.835938 126.894531 121.433594 128.902344 M 108.261719 130.828125 C 109.957031 131.722656 108.953125 133.058594 106.671875 132.960938 L 105.300781 132.898438 L 105.238281 131.917969 C 105.195312 131.269531 105.265625 130.882812 105.4375 130.773438 C 105.828125 130.527344 107.761719 130.566406 108.261719 130.828125 "/>
<path style=" stroke:none;fill-rule:evenodd;fill:rgb(36.078431%,20.392157%,20.392157%);fill-opacity:1;" d="M 0 100 L 0 200 L 200 200 L 200 0 L 0 0 L 0 100 M 110.398438 37.707031 C 121.097656 40.992188 124.808594 53.953125 117.382812 62.082031 C 116.253906 63.316406 116.273438 63.359375 118 63.445312 L 119.101562 63.5 L 119.199219 64.871094 L 119.300781 66.242188 L 122.351562 66.210938 L 125.40625 66.183594 L 128.882812 64.089844 C 130.792969 62.941406 132.503906 62 132.679688 62 C 133.03125 62 133.179688 81.605469 132.835938 82.152344 C 132.71875 82.335938 131.679688 81.8125 128.988281 80.210938 L 125.300781 78.015625 L 119.300781 77.960938 L 119.199219 83.429688 L 119.101562 88.898438 L 76.300781 88.898438 L 76.246094 81.351562 L 76.195312 73.800781 L 75.09375 73.800781 C 74.113281 73.800781 73.964844 73.855469 73.765625 74.296875 C 73.640625 74.570312 73.394531 74.832031 73.21875 74.878906 C 73.042969 74.929688 72.707031 75.023438 72.46875 75.09375 C 72.046875 75.210938 68.800781 69.179688 68.800781 68.28125 C 68.800781 67.761719 70.804688 67.933594 72.53125 68.601562 C 74.554688 69.378906 76.199219 69.441406 76.199219 68.738281 C 76.199219 68.390625 76.023438 68.21875 75.449219 68.011719 C 63.910156 63.90625 64.078125 48.199219 75.699219 44.292969 C 77.1875 43.792969 77.480469 43.761719 79.839844 43.84375 L 82.382812 43.933594 L 84.660156 45.066406 C 86.914062 46.191406 88.3125 47.351562 89.699219 49.257812 C 90.394531 50.214844 91.460938 49.738281 91.777344 48.328125 C 93.503906 40.613281 102.730469 35.347656 110.398438 37.707031 M 92.5 59.730469 C 92.28125 59.777344 91.898438 59.859375 91.65625 59.910156 C 91.257812 59.996094 89.800781 62.601562 89.800781 63.226562 C 89.800781 63.480469 95.746094 63.445312 95.90625 63.191406 C 95.976562 63.074219 95.675781 62.59375 95.238281 62.117188 C 94.800781 61.640625 94.195312 60.882812 93.894531 60.425781 C 93.59375 59.972656 93.246094 59.609375 93.125 59.621094 C 93 59.636719 92.71875 59.683594 92.5 59.730469 M 113.914062 84.316406 C 113.292969 84.9375 113.867188 86.199219 114.769531 86.199219 C 115.582031 86.199219 116.140625 84.820312 115.558594 84.238281 C 115.21875 83.898438 114.285156 83.941406 113.914062 84.316406 M 89.300781 93.066406 C 94.0625 94.375 96.625 98.40625 96.621094 104.589844 C 96.617188 112.257812 92.753906 116.457031 85.699219 116.457031 C 78.726562 116.460938 74.9375 112.25 74.933594 104.5 C 74.933594 97.71875 77.886719 93.796875 83.800781 92.71875 C 84.6875 92.554688 88.269531 92.78125 89.300781 93.066406 M 56.84375 98.699219 C 58.410156 101.835938 59.738281 104.398438 59.796875 104.398438 C 59.855469 104.398438 61.183594 101.835938 62.75 98.699219 L 65.597656 93 L 68.976562 93 C 71.875 93 72.375 93.046875 72.476562 93.316406 C 72.726562 93.964844 72.613281 115.707031 72.359375 115.960938 C 72 116.320312 65.128906 116.296875 64.828125 115.933594 C 64.691406 115.765625 64.589844 114.242188 64.554688 111.800781 L 64.5 107.929688 L 63.125 110.488281 C 61.410156 113.679688 61.296875 113.800781 59.949219 113.796875 C 58.222656 113.792969 58.214844 113.785156 56.632812 110.890625 C 55.828125 109.414062 55.085938 108.152344 54.984375 108.089844 C 54.875 108.023438 54.800781 109.589844 54.800781 111.96875 C 54.800781 115.421875 54.757812 115.972656 54.484375 116.078125 C 53.859375 116.316406 47.492188 116.214844 47.238281 115.960938 C 46.976562 115.699219 46.875 93.390625 47.132812 93.132812 C 47.207031 93.058594 48.78125 93 50.628906 93 L 53.992188 93 L 56.84375 98.699219 M 105.945312 93.25 C 106.050781 93.386719 107.0625 96.019531 108.195312 99.101562 C 110.421875 105.175781 110.488281 105.339844 110.65625 105.066406 C 110.71875 104.964844 111.714844 102.367188 112.867188 99.292969 C 114.023438 96.214844 115.03125 93.539062 115.105469 93.347656 C 115.300781 92.847656 123.121094 92.902344 123.066406 93.398438 C 123.023438 93.832031 114.585938 115.652344 114.347656 115.949219 C 114.128906 116.226562 107.289062 116.316406 106.871094 116.046875 C 106.554688 115.84375 97.957031 93.429688 98.105469 93.191406 C 98.292969 92.886719 105.707031 92.941406 105.945312 93.25 M 132.476562 93.316406 C 132.757812 94.046875 132.609375 115.742188 132.324219 115.980469 C 132.132812 116.136719 130.941406 116.191406 128.472656 116.15625 L 124.898438 116.101562 L 124.796875 93 L 128.578125 93 C 131.839844 93 132.375 93.042969 132.476562 93.316406 M 152.898438 96 L 152.898438 98.898438 L 143 99.007812 L 143 101.601562 L 147.878906 101.601562 C 153.582031 101.601562 153 101.25 153 104.675781 C 153 107.859375 153.460938 107.601562 147.761719 107.601562 L 143 107.601562 L 143 110 L 147.761719 110 C 153.496094 110 153 109.691406 153 113.234375 C 153 116.605469 154.210938 116.226562 143.699219 116.15625 L 135.300781 116.101562 L 135.25 104.546875 L 135.195312 92.996094 L 144.046875 93.046875 L 152.898438 93.101562 L 152.898438 96 M 84.496094 99.726562 C 83.246094 100.351562 82.613281 101.980469 82.605469 104.613281 C 82.585938 111.042969 88.4375 111.671875 88.929688 105.292969 C 89.253906 101.054688 87.140625 98.40625 84.496094 99.726562 M 137.34375 123.3125 C 138.464844 123.859375 139.648438 125.082031 139.976562 126.023438 C 140.226562 126.738281 139.90625 126.980469 138.027344 127.488281 L 136.753906 127.835938 L 136.015625 127.117188 C 135.367188 126.484375 135.164062 126.398438 134.257812 126.398438 C 132.246094 126.398438 131.964844 127.011719 133.75 127.507812 C 138.25 128.75 139.4375 129.367188 140.171875 130.851562 C 142.703125 135.953125 132.324219 138.789062 129.191406 133.851562 C 128.28125 132.417969 128.398438 132.195312 130.359375 131.652344 L 132.019531 131.191406 L 132.683594 131.894531 C 133.445312 132.707031 135.667969 132.972656 135.933594 132.285156 C 136.121094 131.800781 135.859375 131.667969 133.398438 131 C 129.164062 129.851562 127.800781 128.492188 128.285156 125.910156 C 128.800781 123.171875 134.003906 121.679688 137.34375 123.3125 M 58.160156 123.039062 C 58.304688 123.183594 58.398438 123.894531 58.398438 124.839844 L 58.398438 126.398438 L 55.816406 126.398438 C 52.789062 126.398438 52.601562 126.449219 52.601562 127.222656 L 52.601562 127.800781 L 55.25 127.804688 C 58.523438 127.808594 58.433594 127.757812 58.359375 129.617188 L 58.300781 131.101562 L 55.898438 131.148438 C 52.316406 131.222656 52.621094 130.984375 52.554688 133.753906 L 52.5 136.101562 L 50.699219 136.160156 C 49.710938 136.191406 48.699219 136.167969 48.449219 136.105469 L 48 135.992188 L 48 129.636719 C 48 124.960938 48.0625 123.214844 48.238281 123.039062 C 48.582031 122.699219 57.820312 122.699219 58.160156 123.039062 M 68.367188 123.058594 C 68.914062 123.71875 73.214844 135.867188 72.960938 136.03125 C 72.816406 136.125 71.855469 136.179688 70.820312 136.152344 C 68.828125 136.097656 68.808594 136.085938 68.40625 134.949219 L 68.210938 134.398438 L 64.089844 134.398438 L 63.300781 136.101562 L 61.378906 136.15625 C 59.996094 136.199219 59.40625 136.140625 59.261719 135.957031 C 59.097656 135.738281 62.640625 125.769531 63.75 123.332031 C 64.03125 122.714844 67.890625 122.488281 68.367188 123.058594 M 77.90625 123.25 C 78.085938 123.496094 78.789062 124.644531 79.464844 125.800781 L 80.699219 127.898438 L 80.800781 125.601562 C 80.925781 122.667969 80.816406 122.800781 83.171875 122.800781 C 85.8125 122.800781 85.601562 122.21875 85.601562 129.5 C 85.601562 136.707031 85.757812 136.199219 83.492188 136.199219 C 81.578125 136.199219 81.738281 136.328125 80.09375 133.5 C 78.347656 130.496094 78.398438 130.5 78.398438 133.433594 C 78.398438 136.378906 78.554688 136.199219 76.023438 136.199219 C 73.625 136.199219 73.800781 136.710938 73.800781 129.710938 C 73.804688 122.144531 73.617188 122.800781 75.8125 122.800781 C 77.417969 122.800781 77.613281 122.84375 77.90625 123.25 M 95.566406 123.058594 C 96.113281 123.71875 100.414062 135.867188 100.160156 136.03125 C 100.015625 136.125 99.054688 136.179688 98.019531 136.152344 C 96.027344 136.097656 96.007812 136.085938 95.605469 134.949219 L 95.410156 134.398438 L 91.289062 134.398438 L 90.5 136.101562 L 88.578125 136.15625 C 87.195312 136.199219 86.605469 136.140625 86.464844 135.957031 C 86.296875 135.738281 89.839844 125.769531 90.949219 123.332031 C 91.230469 122.714844 95.089844 122.488281 95.566406 123.058594 M 109.394531 123.015625 C 112.128906 123.644531 113.328125 126.855469 111.542969 128.761719 L 111.109375 129.21875 L 111.757812 129.726562 C 114.246094 131.675781 113.078125 135.117188 109.652344 135.921875 C 108.140625 136.277344 101.585938 136.308594 101.238281 135.960938 C 100.984375 135.707031 100.882812 124.160156 101.125 123.25 C 101.261719 122.742188 107.445312 122.566406 109.394531 123.015625 M 122.96875 123.0625 C 123.519531 123.726562 127.816406 135.867188 127.558594 136.03125 C 127.417969 136.125 126.445312 136.179688 125.398438 136.152344 L 123.5 136.101562 L 123.117188 135.25 L 122.730469 134.398438 L 118.691406 134.398438 L 118.296875 135.25 L 117.898438 136.101562 L 116 136.152344 C 114.953125 136.179688 113.992188 136.128906 113.855469 136.042969 C 113.640625 135.902344 117.148438 125.949219 118.296875 123.449219 L 118.59375 122.800781 L 120.671875 122.800781 C 122.148438 122.800781 122.816406 122.875 122.96875 123.0625 M 151.761719 123.039062 C 151.90625 123.183594 152 123.894531 152 124.839844 L 152 126.398438 L 149.417969 126.398438 C 146.390625 126.398438 146.199219 126.449219 146.199219 127.222656 L 146.199219 127.800781 L 148.851562 127.804688 C 152.121094 127.808594 152.035156 127.757812 151.960938 129.617188 L 151.898438 131.101562 L 149.5 131.148438 C 146.371094 131.214844 146.199219 131.257812 146.199219 132 L 146.199219 132.589844 L 149.050781 132.644531 L 151.898438 132.699219 L 151.960938 134.28125 C 152 135.414062 151.945312 135.910156 151.757812 136.03125 C 151.460938 136.21875 142.398438 136.261719 141.917969 136.078125 C 141.503906 135.921875 141.429688 123.449219 141.839844 123.039062 C 142.011719 122.867188 143.394531 122.800781 146.800781 122.800781 C 150.203125 122.800781 151.585938 122.867188 151.761719 123.039062 M 105.675781 126.6875 C 105.40625 127.386719 105.683594 127.699219 106.628906 127.761719 C 108.121094 127.855469 108.75 126.800781 107.363281 126.523438 C 106.371094 126.324219 105.796875 126.378906 105.675781 126.6875 M 65.828125 129.214844 C 65.6875 129.703125 65.527344 130.265625 65.46875 130.464844 C 65.378906 130.773438 65.464844 130.816406 66.03125 130.765625 C 66.773438 130.691406 66.851562 130.210938 66.328125 128.933594 L 66.082031 128.332031 L 65.828125 129.214844 M 93.027344 129.214844 C 92.890625 129.703125 92.726562 130.265625 92.667969 130.464844 C 92.582031 130.773438 92.667969 130.816406 93.230469 130.765625 C 93.972656 130.691406 94.050781 130.210938 93.527344 128.933594 L 93.285156 128.332031 L 93.027344 129.214844 M 120.332031 129.550781 C 119.996094 130.683594 120.042969 130.800781 120.828125 130.800781 C 121.46875 130.800781 121.5 130.433594 120.980469 129.050781 C 120.738281 128.410156 120.648438 128.480469 120.332031 129.550781 M 105.679688 131.476562 C 105.390625 132.230469 105.671875 132.496094 106.800781 132.558594 C 108.125 132.628906 108.835938 132.246094 108.480469 131.660156 C 108.179688 131.171875 105.855469 131.019531 105.679688 131.476562 "/>
<path style=" stroke:none;fill-rule:evenodd;fill:rgb(98.431373%,98.039216%,97.647059%);fill-opacity:1;" d="M 104.980469 44.414062 C 99.109375 45.078125 96.558594 52.796875 100.828125 56.980469 C 107.03125 63.0625 116.890625 55.410156 112.503906 47.921875 C 110.984375 45.332031 108.226562 44.046875 104.980469 44.414062 M 106.082031 46.703125 C 106.527344 47.039062 106.59375 48.023438 106.210938 48.488281 C 105.824219 48.953125 104.878906 48.878906 104.511719 48.355469 C 103.707031 47.207031 104.980469 45.867188 106.082031 46.703125 M 110.101562 49.402344 C 110.667969 50.5 109.699219 51.46875 108.601562 50.902344 C 107.492188 50.328125 107.882812 48.824219 109.144531 48.808594 C 109.664062 48.800781 109.851562 48.917969 110.101562 49.402344 M 77.601562 49.839844 C 77.324219 49.957031 76.828125 50.171875 76.5 50.316406 C 72.820312 51.914062 72.273438 58.03125 75.597656 60.398438 C 77.085938 61.457031 80.019531 62 81.152344 61.421875 C 81.34375 61.324219 81.75 61.128906 82.058594 60.984375 C 86.617188 58.847656 86.273438 51.804688 81.523438 50.027344 C 80.289062 49.566406 78.449219 49.476562 77.601562 49.839844 M 103.351562 50.050781 C 103.667969 50.304688 103.675781 51.445312 103.359375 51.761719 C 102.5625 52.554688 100.929688 51.484375 101.449219 50.503906 C 101.90625 49.648438 102.628906 49.472656 103.351562 50.050781 M 79.390625 51.6875 C 79.523438 51.847656 79.601562 52.230469 79.566406 52.539062 C 79.449219 53.558594 77.800781 53.3125 77.800781 52.277344 C 77.800781 51.566406 78.9375 51.144531 79.390625 51.6875 M 109.515625 53.496094 C 110.4375 54.417969 109.15625 55.8125 108.054688 55.089844 C 107.367188 54.636719 107.457031 53.429688 108.199219 53.144531 C 108.761719 52.929688 109.019531 53 109.515625 53.496094 M 82.433594 53.53125 C 83.300781 54.316406 82.28125 55.5625 81.300781 54.917969 C 80.71875 54.539062 80.664062 54.082031 81.132812 53.566406 C 81.542969 53.113281 81.960938 53.101562 82.433594 53.53125 M 105 54.199219 C 105.480469 54.679688 105.5 54.96875 105.089844 55.554688 C 104.503906 56.394531 103 55.890625 103 54.855469 C 103 54.460938 103.753906 53.800781 104.199219 53.800781 C 104.421875 53.800781 104.78125 53.980469 105 54.199219 M 77.085938 54.316406 C 77.429688 54.660156 77.460938 54.808594 77.277344 55.289062 C 76.921875 56.21875 75.601562 55.984375 75.601562 54.992188 C 75.601562 54.066406 76.449219 53.675781 77.085938 54.316406 M 82.160156 57.039062 C 82.542969 57.425781 82.4375 57.964844 81.914062 58.308594 C 81.074219 58.859375 80.132812 58.023438 80.652344 57.191406 C 80.925781 56.753906 81.785156 56.667969 82.160156 57.039062 M 78.355469 57.511719 C 78.882812 57.882812 78.921875 58.332031 78.46875 58.835938 C 77.902344 59.460938 76.800781 59.03125 76.800781 58.179688 C 76.800781 57.871094 77.484375 57.199219 77.800781 57.199219 C 77.859375 57.199219 78.109375 57.339844 78.355469 57.511719 "/>
<path style=" stroke:none;fill-rule:evenodd;fill:rgb(68.627451%,57.254902%,36.078431%);fill-opacity:1;" d="M 103.898438 37.589844 C 100.527344 37.957031 96.617188 40.324219 94.511719 43.269531 C 93.078125 45.28125 92.527344 46.453125 91.8125 49 C 91.574219 49.84375 90.054688 50.265625 89.640625 49.601562 C 88.84375 48.324219 86.273438 46.054688 84.800781 45.328125 C 73.441406 39.726562 62.136719 52.757812 69.308594 63.1875 C 70.417969 64.796875 73.195312 67.199219 73.953125 67.199219 C 74.046875 67.199219 74.496094 67.378906 74.953125 67.601562 C 75.40625 67.820312 75.925781 68 76.101562 68 C 76.347656 68 76.410156 68.160156 76.363281 68.648438 C 76.265625 69.660156 73.300781 69.589844 71.863281 68.546875 C 71.734375 68.449219 71.128906 68.324219 70.519531 68.257812 C 68.976562 68.101562 68.941406 68.347656 70.15625 70.847656 C 70.703125 71.976562 71.351562 73.328125 71.597656 73.851562 C 72.15625 75.039062 72.910156 75.171875 73.601562 74.199219 C 73.992188 73.648438 74.125 73.601562 75.214844 73.601562 L 76.398438 73.601562 L 76.398438 88.800781 L 118.898438 88.699219 L 118.898438 63.699219 L 117.449219 63.640625 C 115.699219 63.570312 115.707031 63.742188 117.367188 61.769531 C 126.390625 51.035156 118.042969 36.050781 103.898438 37.589844 M 110.5 38.25 C 120.898438 41.445312 124.269531 54.347656 116.746094 62.132812 C 115.410156 63.511719 115.523438 63.800781 117.394531 63.800781 L 118.800781 63.800781 L 118.800781 88.601562 L 76.605469 88.601562 L 76.550781 81.050781 L 76.5 73.5 L 75.171875 73.441406 C 73.886719 73.382812 73.824219 73.40625 73.40625 73.992188 C 72.601562 75.121094 72.328125 74.882812 70.796875 71.679688 C 70.027344 70.074219 69.398438 68.726562 69.398438 68.679688 C 69.398438 68.367188 71.523438 68.691406 72.800781 69.195312 C 75.230469 70.152344 76.671875 69.957031 76.5625 68.679688 C 76.5 67.976562 76.457031 67.941406 74.84375 67.292969 C 70.089844 65.378906 67.398438 61.332031 67.398438 56.101562 C 67.398438 44.546875 82.132812 39.804688 89.027344 49.136719 C 89.871094 50.277344 90.171875 50.382812 91.273438 49.925781 C 91.859375 49.679688 91.964844 49.507812 92.261719 48.304688 C 94.160156 40.609375 102.757812 35.867188 110.5 38.25 M 91.808594 59.394531 C 91.320312 59.472656 90.878906 59.664062 90.828125 59.820312 C 90.777344 59.972656 90.355469 60.832031 89.886719 61.730469 C 88.777344 63.863281 88.679688 63.800781 93.046875 63.800781 C 97.324219 63.800781 97.390625 63.757812 95.757812 62.042969 C 95.160156 61.414062 94.425781 60.515625 94.132812 60.050781 C 93.558594 59.144531 93.488281 59.121094 91.808594 59.394531 M 94.46875 60.851562 C 95.070312 61.648438 95.796875 62.519531 96.082031 62.785156 C 96.914062 63.5625 96.777344 63.601562 93 63.601562 C 90.769531 63.601562 89.398438 63.523438 89.398438 63.402344 C 89.398438 63.292969 89.714844 62.613281 90.101562 61.886719 C 90.484375 61.160156 90.800781 60.445312 90.800781 60.296875 C 90.800781 59.859375 91.507812 59.597656 93.140625 59.425781 C 93.269531 59.410156 93.871094 60.050781 94.46875 60.851562 M 131.3125 62.898438 C 130.675781 63.285156 130.109375 63.601562 130.0625 63.601562 C 130.011719 63.601562 129.578125 63.871094 129.101562 64.199219 C 128.621094 64.53125 128.167969 64.800781 128.09375 64.800781 C 128.023438 64.800781 127.722656 64.96875 127.429688 65.175781 C 125.785156 66.34375 125.558594 66.398438 122.492188 66.398438 L 119.59375 66.398438 L 119.648438 72.050781 L 119.699219 77.699219 L 122.699219 77.800781 L 125.699219 77.898438 L 127.363281 78.949219 C 128.28125 79.527344 129.074219 80 129.128906 80 C 129.183594 80 129.621094 80.269531 130.101562 80.601562 C 130.578125 80.929688 131.046875 81.203125 131.136719 81.203125 C 131.226562 81.207031 131.523438 81.386719 131.800781 81.601562 C 132.832031 82.40625 132.800781 82.71875 132.800781 72.101562 C 132.800781 66.65625 132.726562 62.199219 132.636719 62.199219 C 132.550781 62.199219 131.953125 62.515625 131.3125 62.898438 M 132.554688 76.882812 L 132.5 81.789062 L 129.5 79.972656 C 125.175781 77.347656 125.347656 77.410156 122.351562 77.40625 L 119.800781 77.398438 L 119.800781 66.601562 L 125.503906 66.601562 L 129.003906 64.515625 L 132.5 62.429688 L 132.554688 67.203125 C 132.582031 69.824219 132.582031 74.179688 132.554688 76.882812 M 114.101562 83.632812 C 113.117188 84.167969 112.917969 85.1875 113.613281 86.074219 C 114.15625 86.761719 115.152344 86.792969 115.765625 86.136719 C 116.957031 84.867188 115.59375 82.816406 114.101562 83.632812 M 115.472656 84.015625 C 116.441406 84.777344 115.992188 86.40625 114.820312 86.394531 C 113.570312 86.378906 112.992188 84.992188 113.867188 84.113281 C 114.488281 83.492188 114.785156 83.472656 115.472656 84.015625 M 83 93.125 C 77.84375 94.25 75.191406 98.097656 75.179688 104.464844 C 75.167969 110.796875 77.632812 114.683594 82.414062 115.867188 C 87.460938 117.117188 91.503906 115.886719 94.476562 112.199219 C 96.722656 109.414062 97.046875 102.082031 95.101562 98.09375 C 93.109375 94.003906 88.203125 91.988281 83 93.125 M 88.058594 93.292969 C 94.320312 94.410156 97.5625 100.753906 95.824219 108.5 C 94.355469 115.058594 86.726562 118.128906 80.191406 114.796875 C 74.660156 111.972656 73.550781 100.574219 78.34375 95.839844 C 80.753906 93.457031 84.089844 92.585938 88.058594 93.292969 M 47.25 104.546875 L 47.300781 115.898438 L 54.5 115.898438 L 54.554688 111.632812 C 54.613281 106.917969 54.652344 106.820312 55.683594 108.703125 C 56.046875 109.363281 56.566406 110.304688 56.84375 110.800781 C 57.125 111.296875 57.539062 112.050781 57.769531 112.484375 C 58.308594 113.5 58.480469 113.59375 59.820312 113.597656 C 61.066406 113.601562 61.242188 113.476562 62.058594 112 C 62.84375 110.570312 64.039062 108.339844 64.28125 107.851562 C 64.71875 106.960938 64.792969 107.46875 64.847656 111.648438 L 64.898438 115.898438 L 72.300781 115.898438 L 72.300781 93.300781 L 65.699219 93.199219 L 62.828125 99.007812 C 61.246094 102.203125 59.859375 104.785156 59.75 104.75 C 59.636719 104.710938 58.277344 102.121094 56.722656 98.992188 L 53.898438 93.300781 L 47.195312 93.191406 L 47.25 104.546875 M 98.398438 93.550781 C 98.398438 93.742188 98.75 94.800781 99.179688 95.898438 C 99.609375 97 100.335938 98.890625 100.796875 100.101562 C 101.261719 101.308594 101.710938 102.480469 101.800781 102.699219 C 101.890625 102.921875 102.339844 104.089844 102.800781 105.300781 C 103.261719 106.511719 103.710938 107.679688 103.800781 107.898438 C 103.890625 108.121094 104.339844 109.289062 104.800781 110.5 C 105.753906 113.003906 105.777344 113.070312 106.4375 114.699219 L 106.917969 115.898438 L 110.5625 115.953125 C 113.90625 116.003906 114.21875 115.980469 114.324219 115.65625 C 114.386719 115.460938 114.507812 115.121094 114.597656 114.898438 C 114.6875 114.679688 115.140625 113.511719 115.601562 112.300781 C 116.058594 111.089844 116.511719 109.921875 116.601562 109.699219 C 116.691406 109.480469 117.230469 108.085938 117.800781 106.601562 C 118.371094 105.113281 118.910156 103.71875 119 103.5 C 119.089844 103.28125 119.539062 102.109375 120 100.898438 C 120.460938 99.691406 120.929688 98.476562 121.046875 98.199219 C 121.160156 97.925781 121.324219 97.519531 121.40625 97.300781 C 121.492188 97.078125 121.839844 96.179688 122.183594 95.300781 C 123.074219 93 123.351562 93.183594 119.0625 93.246094 L 115.324219 93.300781 L 114.996094 94.199219 C 114.8125 94.695312 114.597656 95.28125 114.515625 95.5 C 114.429688 95.71875 114.183594 96.394531 113.960938 97 C 113.742188 97.605469 113.488281 98.28125 113.398438 98.5 C 113.3125 98.71875 113.042969 99.441406 112.800781 100.101562 C 112.558594 100.761719 112.289062 101.480469 112.199219 101.699219 C 112.113281 101.921875 111.839844 102.640625 111.59375 103.300781 C 110.882812 105.226562 110.710938 105.601562 110.546875 105.601562 C 110.34375 105.601562 110.195312 105.238281 108.398438 100.300781 C 107.429688 97.628906 107.152344 96.875 107 96.5 C 106.796875 95.992188 106.074219 94.011719 105.925781 93.550781 C 105.824219 93.234375 105.460938 93.199219 102.105469 93.199219 C 98.710938 93.199219 98.398438 93.230469 98.398438 93.550781 M 124.894531 93.445312 C 124.839844 93.585938 124.820312 98.695312 124.847656 104.800781 L 124.898438 115.898438 L 132.300781 115.898438 L 132.300781 93.300781 L 128.644531 93.246094 C 125.832031 93.203125 124.96875 93.25 124.894531 93.445312 M 135.292969 93.449219 C 135.238281 93.585938 135.21875 98.695312 135.246094 104.800781 L 135.300781 115.898438 L 144.050781 115.953125 L 152.800781 116.003906 L 152.800781 110.40625 L 147.851562 110.351562 L 142.898438 110.300781 L 142.898438 107.300781 L 152.8125 107.191406 L 152.757812 104.546875 L 152.699219 101.898438 L 147.75 101.847656 L 142.800781 101.792969 L 142.800781 98.800781 L 152.800781 98.800781 L 152.800781 93.199219 L 144.09375 93.199219 C 137.3125 93.199219 135.367188 93.253906 135.292969 93.449219 M 56.597656 99.207031 C 58.695312 103.4375 59.5625 105 59.789062 104.957031 C 59.972656 104.921875 61.261719 102.574219 62.96875 99.148438 L 65.839844 93.398438 L 72.199219 93.398438 L 72.199219 115.800781 L 65.199219 115.800781 L 65.199219 111.398438 C 65.199219 106.445312 65.042969 105.996094 63.988281 107.953125 C 63.710938 108.472656 62.996094 109.800781 62.410156 110.898438 C 61.003906 113.527344 61.136719 113.398438 59.789062 113.398438 C 58.707031 113.398438 57.800781 112.832031 57.800781 112.152344 C 57.800781 112.027344 55.183594 107.339844 54.949219 107.050781 C 54.476562 106.457031 54.398438 107.042969 54.398438 111.300781 L 54.398438 115.800781 L 47.398438 115.800781 L 47.398438 93.398438 L 53.714844 93.398438 L 56.597656 99.207031 M 105.90625 94.199219 C 106.050781 94.585938 106.632812 96.160156 107.199219 97.699219 C 109.261719 103.3125 109.054688 102.761719 109.835938 104.699219 C 110.601562 106.59375 110.609375 106.585938 112.417969 101.75 C 113.933594 97.707031 114.242188 96.894531 114.800781 95.449219 C 115.132812 94.597656 115.402344 93.789062 115.402344 93.648438 C 115.402344 93.460938 116.257812 93.398438 119.023438 93.398438 C 122.390625 93.398438 122.632812 93.425781 122.5 93.75 C 122.421875 93.941406 122.109375 94.773438 121.804688 95.601562 C 121.5 96.425781 120.914062 97.953125 120.503906 99 C 120.09375 100.046875 119.320312 102.046875 118.78125 103.449219 C 118.242188 104.851562 117.339844 107.191406 116.78125 108.648438 C 116.222656 110.109375 115.691406 111.480469 115.597656 111.699219 C 115.511719 111.921875 115.121094 112.910156 114.738281 113.898438 L 114.042969 115.699219 L 110.570312 115.753906 L 107.101562 115.804688 L 106.03125 113.050781 C 105.445312 111.539062 104.53125 109.175781 104 107.800781 C 103.472656 106.425781 102.570312 104.085938 102 102.601562 C 101.429688 101.113281 100.601562 98.953125 100.160156 97.800781 C 99.296875 95.53125 99.167969 95.191406 98.824219 94.339844 C 98.699219 94.03125 98.601562 93.695312 98.601562 93.585938 C 98.601562 93.464844 99.929688 93.410156 102.121094 93.445312 L 105.644531 93.5 L 105.90625 94.199219 M 132 104.601562 L 132 115.800781 L 125.199219 115.800781 L 125.199219 93.398438 L 132 93.398438 L 132 104.601562 M 152.601562 96 L 152.601562 98.601562 L 147.738281 98.601562 C 142.175781 98.601562 142.398438 98.527344 142.398438 100.324219 C 142.398438 102.265625 142.214844 102.199219 147.816406 102.199219 L 152.601562 102.199219 L 152.601562 107 L 147.707031 107 C 142.121094 107 142.398438 106.90625 142.398438 108.800781 C 142.398438 110.695312 142.121094 110.601562 147.707031 110.601562 L 152.601562 110.601562 L 152.601562 115.800781 L 135.601562 115.800781 L 135.601562 93.398438 L 152.601562 93.398438 L 152.601562 96 M 84.179688 99.425781 C 81.21875 101.144531 81.5 108.628906 84.574219 109.917969 C 88.226562 111.449219 90.847656 105.710938 88.695312 100.898438 C 87.917969 99.160156 85.816406 98.476562 84.179688 99.425781 M 87.046875 99.449219 C 90.082031 101.175781 89.925781 108.417969 86.824219 109.71875 C 84.175781 110.828125 82.277344 108.386719 82.429688 104.074219 C 82.5625 100.335938 84.75 98.144531 87.046875 99.449219 M 132.398438 123.015625 C 129.476562 123.773438 128.398438 124.773438 128.398438 126.742188 C 128.398438 128.761719 129.746094 129.835938 133.5 130.800781 C 135.574219 131.332031 136.144531 131.566406 136.289062 131.945312 C 136.679688 132.957031 133.605469 133.171875 132.632812 132.199219 C 131.941406 131.511719 131.824219 131.496094 130.269531 131.898438 C 128.785156 132.285156 128.667969 132.417969 129.070312 133.261719 C 130.945312 137.21875 139.078125 137.101562 140.199219 133.105469 C 140.820312 130.886719 139.253906 129.261719 135.5 128.226562 C 135.058594 128.105469 134.253906 127.882812 133.710938 127.734375 C 132.507812 127.40625 132.113281 126.914062 132.699219 126.480469 C 133.722656 125.71875 135.179688 125.910156 136.136719 126.925781 L 136.792969 127.621094 L 138.246094 127.1875 C 140.125 126.632812 140.058594 126.695312 139.617188 125.839844 C 138.414062 123.480469 135.308594 122.265625 132.398438 123.015625 M 74.246094 123.167969 C 74.050781 123.292969 74.007812 124.71875 74.046875 129.613281 L 74.101562 135.898438 L 78.101562 135.898438 L 78.199219 133.316406 C 78.269531 131.5 78.375 130.707031 78.550781 130.648438 C 78.6875 130.605469 78.800781 130.652344 78.800781 130.753906 C 78.800781 130.855469 79.484375 132.078125 80.316406 133.46875 L 81.835938 136 L 85.199219 136 L 85.199219 123.199219 L 81.199219 123.199219 L 81.199219 125.898438 C 81.199219 129.164062 81.125 129.191406 79.613281 126.53125 C 77.558594 122.910156 77.652344 123 75.917969 123.003906 C 75.136719 123.003906 74.386719 123.078125 74.246094 123.167969 M 135.730469 123.277344 C 138.515625 123.875 140.558594 126.246094 138.753906 126.789062 C 138.285156 126.929688 137.636719 127.128906 137.3125 127.226562 C 136.757812 127.394531 136.414062 127.21875 136.402344 126.753906 C 136.398438 126.460938 134.796875 125.800781 134.097656 125.800781 C 131.894531 125.800781 131.515625 127.300781 133.566406 127.910156 C 136.957031 128.914062 137.574219 129.125 138.359375 129.566406 C 139.832031 130.386719 140.351562 131.613281 139.890625 133.167969 C 138.886719 136.550781 131.792969 136.933594 129.644531 133.71875 C 128.914062 132.625 128.960938 132.46875 130.125 132.167969 C 131.828125 131.726562 131.902344 131.734375 132.550781 132.382812 C 133.175781 133.003906 133.546875 133.09375 135.199219 133.003906 C 136.992188 132.90625 136.96875 131.445312 135.164062 131 C 130.109375 129.746094 128.601562 128.792969 128.601562 126.855469 C 128.601562 124.898438 129.878906 123.726562 132.5 123.28125 C 134.324219 122.96875 134.296875 122.96875 135.730469 123.277344 M 48.398438 129.597656 L 48.398438 136 L 52.398438 136 L 52.398438 133.621094 C 52.398438 130.789062 52.152344 131 55.511719 131 C 58.34375 131 58.285156 131.042969 58.164062 129.085938 L 58.101562 128.101562 L 55.25 128.042969 L 52.398438 127.988281 L 52.398438 127.21875 C 52.398438 126.25 52.539062 126.207031 55.644531 126.203125 C 58.324219 126.199219 58.285156 126.230469 58.164062 124.285156 L 58.101562 123.300781 L 48.398438 123.191406 L 48.398438 129.597656 M 63.421875 124.800781 C 63.078125 125.679688 62.53125 127.121094 62.199219 128 C 61.871094 128.878906 61.320312 130.34375 60.980469 131.25 C 60.640625 132.15625 60.105469 133.558594 59.789062 134.359375 C 59.113281 136.085938 59.0625 136.039062 61.515625 135.957031 L 63.300781 135.898438 L 63.5 135.28125 C 63.886719 134.082031 64.0625 134 66.226562 134 L 68.207031 134 L 68.488281 134.648438 C 68.644531 135.007812 68.820312 135.457031 68.878906 135.648438 C 68.972656 135.953125 69.253906 136 70.894531 136 C 73.078125 136 73.085938 135.988281 72.417969 134.277344 C 72.210938 133.738281 71.839844 132.761719 71.597656 132.101562 C 71.359375 131.441406 71.089844 130.71875 71 130.5 C 70.910156 130.28125 70.648438 129.582031 70.417969 128.949219 C 69.433594 126.25 69.210938 125.636719 68.765625 124.449219 L 68.300781 123.199219 L 64.046875 123.199219 L 63.421875 124.800781 M 90.621094 124.800781 C 90.28125 125.679688 89.730469 127.121094 89.398438 128 C 89.070312 128.878906 88.523438 130.34375 88.179688 131.25 C 87.839844 132.15625 87.304688 133.558594 86.992188 134.359375 C 86.316406 136.085938 86.261719 136.039062 88.714844 135.957031 L 90.5 135.898438 L 90.699219 135.28125 C 91.085938 134.082031 91.261719 134 93.425781 134 L 95.40625 134 L 95.6875 134.648438 C 95.84375 135.007812 96.019531 135.457031 96.078125 135.648438 C 96.171875 135.953125 96.453125 136 98.09375 136 C 100.277344 136 100.289062 135.988281 99.617188 134.277344 C 99.410156 133.738281 99.039062 132.761719 98.800781 132.101562 C 98.558594 131.441406 98.289062 130.71875 98.199219 130.5 C 98.113281 130.28125 97.851562 129.582031 97.621094 128.949219 C 96.636719 126.25 96.410156 125.636719 95.96875 124.449219 L 95.503906 123.199219 L 91.246094 123.199219 L 90.621094 124.800781 M 101.289062 123.453125 C 101.238281 123.589844 101.21875 126.449219 101.246094 129.800781 L 101.300781 135.898438 L 104.699219 135.960938 C 109.859375 136.058594 111.605469 135.550781 112.574219 133.664062 C 113.214844 132.421875 112.546875 130.289062 111.351562 129.75 C 110.664062 129.441406 110.667969 129.421875 111.398438 128.601562 C 112.011719 127.914062 112.113281 127.511719 112.015625 126.101562 C 111.933594 124.878906 111.585938 124.351562 110.378906 123.617188 C 109.546875 123.109375 101.476562 122.964844 101.289062 123.453125 M 118.382812 123.742188 C 118.265625 124.050781 118.007812 124.75 117.804688 125.300781 C 117.464844 126.230469 117.03125 127.394531 115.601562 131.199219 C 113.578125 136.582031 113.539062 136.027344 115.921875 135.957031 L 117.84375 135.898438 L 118.160156 135.101562 C 118.582031 134.023438 118.617188 134.007812 120.859375 134.003906 L 122.820312 134 L 123.238281 135 L 123.652344 136 L 125.492188 136 C 127.523438 136 127.648438 135.953125 127.402344 135.328125 C 127.140625 134.660156 126.003906 131.617188 125.578125 130.449219 C 124.777344 128.238281 124.355469 127.085938 124.199219 126.699219 C 124.113281 126.480469 123.84375 125.761719 123.601562 125.101562 C 122.90625 123.179688 123.105469 123.304688 120.726562 123.242188 L 118.59375 123.1875 L 118.382812 123.742188 M 142 129.601562 L 142 136.007812 L 146.851562 135.953125 L 151.699219 135.898438 L 151.699219 132.898438 L 148.898438 132.800781 L 146.101562 132.699219 L 146.035156 132.019531 C 145.945312 131.074219 146.144531 131.007812 149.046875 131.003906 C 151.953125 131 151.886719 131.046875 151.761719 129.085938 L 151.699219 128.101562 L 148.851562 128.042969 L 146 127.988281 L 146 127.21875 C 146 126.25 146.136719 126.207031 149.246094 126.203125 C 151.925781 126.199219 151.886719 126.230469 151.761719 124.285156 L 151.699219 123.300781 L 146.851562 123.246094 L 142 123.191406 L 142 129.601562 M 57.800781 124.699219 L 57.800781 126 L 55.105469 126 C 52.109375 126 52.0625 126.023438 52.234375 127.527344 L 52.300781 128.101562 L 57.800781 128.210938 L 57.800781 130.800781 L 55.121094 130.800781 C 51.964844 130.800781 52.199219 130.570312 52.199219 133.617188 L 52.199219 135.800781 L 48.601562 135.800781 L 48.601562 123.398438 L 57.800781 123.398438 L 57.800781 124.699219 M 68.476562 124.351562 C 68.808594 125.222656 69.457031 126.960938 70.390625 129.5 C 70.59375 130.050781 71.046875 131.265625 71.390625 132.199219 C 72.300781 134.644531 72.59375 135.480469 72.597656 135.648438 C 72.597656 135.734375 71.84375 135.800781 70.921875 135.800781 L 69.242188 135.800781 L 68.769531 134.851562 L 68.300781 133.898438 L 63.898438 133.898438 L 63.445312 134.851562 L 62.992188 135.800781 L 61.296875 135.800781 C 60.363281 135.800781 59.601562 135.769531 59.601562 135.730469 C 59.601562 135.65625 60.414062 133.433594 61.382812 130.851562 C 62.726562 127.265625 63.253906 125.839844 63.609375 124.847656 C 63.8125 124.265625 64.035156 123.703125 64.101562 123.597656 C 64.167969 123.488281 65.097656 123.398438 66.167969 123.398438 L 68.113281 123.398438 L 68.476562 124.351562 M 78.230469 124.550781 C 78.597656 125.183594 78.929688 125.769531 78.96875 125.859375 C 79.09375 126.140625 80.289062 128.085938 80.65625 128.601562 C 81.226562 129.402344 81.394531 128.800781 81.398438 125.949219 L 81.398438 123.398438 L 85 123.398438 L 85 135.800781 L 83.449219 135.792969 L 81.898438 135.789062 L 80.699219 133.679688 C 78.117188 129.136719 78 129.105469 78 132.898438 L 78 135.800781 L 74.199219 135.800781 L 74.199219 123.398438 L 77.5625 123.398438 L 78.230469 124.550781 M 95.675781 124.351562 C 96.007812 125.222656 96.65625 126.960938 97.589844 129.5 C 97.792969 130.050781 98.246094 131.265625 98.59375 132.199219 C 99.503906 134.644531 99.792969 135.480469 99.796875 135.648438 C 99.796875 135.734375 99.042969 135.800781 98.121094 135.800781 L 96.441406 135.800781 L 95.972656 134.851562 L 95.5 133.898438 L 91.101562 133.898438 L 90.644531 134.851562 L 90.191406 135.800781 L 88.496094 135.800781 C 87.5625 135.800781 86.800781 135.769531 86.800781 135.730469 C 86.800781 135.65625 87.613281 133.433594 88.582031 130.851562 C 89.929688 127.265625 90.457031 125.839844 90.808594 124.847656 C 91.011719 124.265625 91.234375 123.703125 91.300781 123.597656 C 91.367188 123.488281 92.300781 123.398438 93.367188 123.398438 L 95.3125 123.398438 L 95.675781 124.351562 M 110.0625 123.699219 C 111.84375 124.441406 112.460938 127.03125 111.199219 128.46875 C 110.460938 129.3125 110.453125 129.507812 111.140625 129.839844 C 112.519531 130.5 113.046875 132.621094 112.160156 133.917969 C 111.160156 135.375 109.566406 135.78125 104.851562 135.792969 L 101.398438 135.800781 L 101.398438 123.398438 L 105.375 123.398438 C 108.445312 123.398438 109.515625 123.46875 110.0625 123.699219 M 123.089844 124.351562 C 123.277344 124.871094 123.703125 126.019531 124.035156 126.898438 C 124.367188 127.78125 124.8125 128.972656 125.019531 129.550781 C 125.9375 132.085938 126.273438 132.988281 126.808594 134.359375 L 127.378906 135.816406 L 123.699219 135.699219 L 123.441406 134.90625 C 123.09375 133.839844 123.007812 133.804688 120.648438 133.804688 L 118.59375 133.800781 L 118.199219 134.449219 C 117.980469 134.808594 117.800781 135.257812 117.800781 135.449219 C 117.800781 135.757812 117.582031 135.800781 116 135.800781 C 115.011719 135.800781 114.199219 135.734375 114.199219 135.648438 C 114.199219 135.566406 114.46875 134.800781 114.800781 133.949219 C 116.652344 129.171875 118.601562 123.882812 118.601562 123.632812 C 118.601562 123.472656 119.234375 123.398438 120.671875 123.398438 L 122.746094 123.398438 L 123.089844 124.351562 M 151.398438 124.699219 L 151.398438 126 L 148.703125 126 C 145.707031 126 145.664062 126.023438 145.835938 127.527344 L 145.898438 128.101562 L 151.398438 128.210938 L 151.398438 130.800781 L 148.703125 130.800781 C 145.707031 130.800781 145.664062 130.824219 145.835938 132.324219 L 145.898438 132.898438 L 148.648438 132.957031 L 151.398438 133.011719 L 151.398438 135.800781 L 142.199219 135.800781 L 142.199219 123.398438 L 151.398438 123.398438 L 151.398438 124.699219 M 105.4375 126.171875 C 105.265625 126.28125 105.195312 126.652344 105.238281 127.21875 L 105.300781 128.101562 L 106.613281 128.160156 C 108.117188 128.226562 108.75 127.824219 108.527344 126.941406 C 108.332031 126.15625 106.269531 125.644531 105.4375 126.171875 M 108.121094 126.617188 C 108.914062 127.273438 108.023438 128.042969 106.570312 127.960938 C 105.449219 127.898438 104.859375 126.890625 105.636719 126.363281 C 105.972656 126.128906 107.753906 126.3125 108.121094 126.617188 M 65.726562 128.234375 C 64.671875 130.742188 64.726562 131.199219 66.078125 131.199219 C 67.285156 131.199219 67.496094 130.984375 67.1875 130.066406 C 67.085938 129.753906 66.875 129.097656 66.722656 128.609375 C 66.375 127.488281 66.085938 127.382812 65.726562 128.234375 M 92.929688 128.234375 C 91.871094 130.742188 91.925781 131.199219 93.277344 131.199219 C 94.484375 131.199219 94.695312 130.984375 94.386719 130.066406 C 94.285156 129.753906 94.074219 129.097656 93.921875 128.609375 C 93.574219 127.488281 93.285156 127.382812 92.929688 128.234375 M 120.097656 128.738281 C 119.910156 129.378906 119.710938 130.191406 119.652344 130.550781 L 119.546875 131.199219 L 120.675781 131.199219 C 122 131.199219 122.066406 131.003906 121.433594 128.902344 C 120.945312 127.265625 120.539062 127.214844 120.097656 128.738281 M 66.527344 128.738281 C 66.664062 129.140625 66.835938 129.8125 66.90625 130.234375 L 67.035156 131 L 66.117188 131 C 65.027344 131 65.007812 130.914062 65.636719 129.078125 C 66.117188 127.683594 66.15625 127.667969 66.527344 128.738281 M 93.726562 128.738281 C 93.863281 129.140625 94.035156 129.8125 94.105469 130.234375 L 94.234375 131 L 93.316406 131 C 92.226562 131 92.207031 130.914062 92.835938 129.078125 C 93.316406 127.683594 93.359375 127.667969 93.726562 128.738281 M 121.011719 128.410156 C 121.84375 130.128906 121.777344 131 120.8125 131 C 119.847656 131 119.769531 130.890625 120.027344 129.890625 C 120.140625 129.453125 120.28125 128.847656 120.339844 128.542969 C 120.449219 127.964844 120.765625 127.90625 121.011719 128.410156 M 105.4375 130.773438 C 105.265625 130.882812 105.195312 131.269531 105.238281 131.917969 L 105.300781 132.898438 L 106.671875 132.960938 C 108.566406 133.042969 109.527344 132.300781 108.847656 131.28125 C 108.4375 130.667969 106.140625 130.328125 105.4375 130.773438 M 108.199219 131.058594 C 109.609375 131.765625 108.640625 132.863281 106.691406 132.761719 L 105.5 132.699219 L 105.4375 131.921875 C 105.34375 130.8125 106.808594 130.355469 108.199219 131.058594 "/>
<path style=" stroke:none;fill-rule:evenodd;fill:rgb(54.117647%,38.431373%,29.019608%);fill-opacity:1;" d="M 102.8125 37.496094 C 97.757812 38.648438 92.871094 43.441406 91.777344 48.328125 C 91.460938 49.738281 90.394531 50.214844 89.699219 49.257812 C 88.3125 47.351562 86.914062 46.191406 84.660156 45.066406 L 82.382812 43.933594 L 79.839844 43.84375 C 72.4375 43.582031 66.929688 48.875 67.039062 56.144531 L 67.078125 58.699219 L 67.210938 56 C 67.511719 49.878906 70.476562 46.097656 76.398438 44.28125 C 80.699219 42.960938 87.105469 45.535156 89.640625 49.601562 C 90.054688 50.265625 91.574219 49.84375 91.8125 49 C 92.527344 46.453125 93.078125 45.28125 94.511719 43.269531 C 96.121094 41.019531 99.128906 38.882812 101.992188 37.957031 C 103.550781 37.453125 108.503906 37.339844 109.898438 37.777344 C 120.910156 41.234375 124.617188 53.144531 117.367188 61.769531 C 115.707031 63.742188 115.699219 63.570312 117.449219 63.640625 L 118.898438 63.699219 L 118.898438 88.699219 L 76.398438 88.800781 L 76.398438 73.601562 L 75.214844 73.601562 C 74.125 73.601562 73.992188 73.648438 73.601562 74.199219 C 72.910156 75.171875 72.15625 75.039062 71.597656 73.851562 C 71.351562 73.328125 70.703125 71.976562 70.15625 70.847656 C 68.941406 68.347656 68.976562 68.101562 70.519531 68.257812 C 71.128906 68.324219 71.734375 68.449219 71.863281 68.546875 C 73.300781 69.589844 76.265625 69.660156 76.363281 68.648438 C 76.410156 68.164062 76.34375 68 76.109375 68 C 75.9375 68 75.386719 67.808594 74.890625 67.574219 C 74.390625 67.339844 73.9375 67.195312 73.878906 67.253906 C 73.824219 67.3125 74.320312 67.570312 74.988281 67.828125 C 75.972656 68.210938 76.199219 68.382812 76.199219 68.75 C 76.199219 69.441406 74.542969 69.375 72.53125 68.601562 C 70.804688 67.933594 68.800781 67.761719 68.800781 68.28125 C 68.800781 69.179688 72.046875 75.210938 72.46875 75.09375 C 72.707031 75.023438 73.042969 74.929688 73.21875 74.878906 C 73.394531 74.832031 73.640625 74.570312 73.765625 74.296875 C 73.964844 73.855469 74.113281 73.800781 75.09375 73.800781 L 76.195312 73.800781 L 76.246094 81.351562 L 76.300781 88.898438 L 119.101562 88.898438 L 119.199219 83.429688 L 119.300781 77.960938 L 125.300781 78.015625 L 128.988281 80.210938 C 131.679688 81.8125 132.71875 82.335938 132.835938 82.152344 C 133.179688 81.605469 133.03125 62 132.679688 62 C 132.503906 62 130.792969 62.941406 128.882812 64.089844 L 125.40625 66.183594 L 122.351562 66.210938 L 119.300781 66.242188 L 119.199219 64.871094 L 119.101562 63.5 L 118 63.445312 C 116.273438 63.359375 116.253906 63.316406 117.382812 62.082031 C 127.152344 51.394531 117.003906 34.273438 102.8125 37.496094 M 67.28125 59.398438 C 67.6875 61.878906 72.644531 68.023438 73.527344 67.140625 C 73.574219 67.089844 73.15625 66.757812 72.589844 66.394531 C 70.332031 64.945312 67.613281 61.265625 67.597656 59.644531 C 67.59375 59.453125 67.496094 59.164062 67.378906 59 C 67.21875 58.773438 67.195312 58.871094 67.28125 59.398438 M 92.101562 59.582031 C 91.132812 59.742188 90.800781 59.929688 90.800781 60.3125 C 90.800781 60.527344 90.902344 60.496094 91.199219 60.199219 C 91.421875 59.980469 91.800781 59.800781 92.050781 59.796875 C 92.296875 59.796875 92.6875 59.746094 92.914062 59.683594 C 93.238281 59.597656 93.449219 59.757812 93.882812 60.414062 C 94.191406 60.875 94.800781 61.640625 95.238281 62.117188 C 96.355469 63.332031 96.226562 63.398438 92.789062 63.398438 C 89.464844 63.398438 89.5625 63.457031 90.3125 61.972656 C 90.597656 61.414062 90.789062 60.921875 90.738281 60.875 C 90.640625 60.777344 89.398438 63.132812 89.398438 63.417969 C 89.398438 63.519531 90.960938 63.601562 93 63.601562 C 96.777344 63.601562 96.914062 63.5625 96.082031 62.785156 C 95.796875 62.519531 95.070312 61.648438 94.46875 60.851562 C 93.871094 60.050781 93.269531 59.410156 93.140625 59.425781 C 93.007812 59.4375 92.539062 59.507812 92.101562 59.582031 M 132.800781 72.101562 C 132.800781 82.71875 132.832031 82.40625 131.800781 81.601562 C 131.523438 81.386719 131.226562 81.207031 131.136719 81.203125 C 131.046875 81.203125 130.578125 80.929688 130.101562 80.601562 C 129.621094 80.269531 129.183594 80 129.128906 80 C 129.074219 80 128.28125 79.527344 127.363281 78.949219 L 125.699219 77.898438 L 122.699219 77.800781 L 119.699219 77.699219 L 119.648438 72.050781 L 119.59375 66.398438 L 122.492188 66.398438 C 125.558594 66.398438 125.785156 66.34375 127.429688 65.175781 C 127.722656 64.96875 128.023438 64.800781 128.09375 64.800781 C 128.167969 64.800781 128.621094 64.53125 129.101562 64.199219 C 129.578125 63.871094 130.011719 63.601562 130.0625 63.601562 C 130.109375 63.601562 130.675781 63.285156 131.3125 62.898438 C 131.953125 62.515625 132.550781 62.199219 132.636719 62.199219 C 132.726562 62.199219 132.800781 66.65625 132.800781 72.101562 M 113.867188 84.113281 C 112.992188 84.992188 113.570312 86.378906 114.820312 86.394531 C 115.992188 86.40625 116.441406 84.777344 115.472656 84.015625 C 114.785156 83.472656 114.488281 83.492188 113.867188 84.113281 M 115.558594 84.238281 C 116.140625 84.820312 115.582031 86.199219 114.769531 86.199219 C 114.285156 86.199219 113.601562 85.503906 113.601562 85.015625 C 113.601562 84.175781 114.957031 83.636719 115.558594 84.238281 M 83.800781 92.730469 C 78.035156 93.625 74.933594 97.742188 74.933594 104.5 C 74.9375 111.953125 78.386719 116.058594 85 116.480469 L 86.699219 116.589844 L 84.78125 116.3125 C 78.015625 115.335938 75.167969 111.820312 75.179688 104.464844 C 75.191406 97.105469 78.457031 93.386719 85.398438 92.816406 L 87.300781 92.65625 L 85.800781 92.65625 C 84.976562 92.65625 84.074219 92.691406 83.800781 92.730469 M 88.101562 93.015625 C 91.574219 93.78125 93.78125 95.382812 95.101562 98.09375 C 97.046875 102.082031 96.722656 109.414062 94.476562 112.199219 C 92.605469 114.519531 90.835938 115.617188 88.183594 116.09375 C 87.257812 116.261719 86.953125 116.371094 87.371094 116.382812 C 93.675781 116.550781 98.101562 108.8125 96.285156 100.789062 C 95.269531 96.304688 91.425781 92.695312 87.800781 92.824219 C 87.457031 92.835938 87.546875 92.894531 88.101562 93.015625 M 47.132812 93.132812 C 46.875 93.390625 46.976562 115.699219 47.238281 115.960938 C 47.492188 116.214844 53.859375 116.316406 54.484375 116.078125 C 54.757812 115.972656 54.800781 115.421875 54.800781 111.96875 C 54.800781 109.589844 54.875 108.023438 54.984375 108.089844 C 55.085938 108.152344 55.828125 109.414062 56.632812 110.890625 C 57.589844 112.644531 58.238281 113.613281 58.5 113.683594 C 59.234375 113.886719 60.917969 113.804688 61.257812 113.550781 C 61.554688 113.332031 64.398438 108.332031 64.398438 108.035156 C 64.398438 107.761719 63.976562 108.398438 63.292969 109.699219 C 61.195312 113.675781 61.261719 113.601562 59.820312 113.597656 C 58.480469 113.59375 58.308594 113.5 57.769531 112.484375 C 57.539062 112.050781 57.125 111.296875 56.84375 110.800781 C 56.566406 110.304688 56.046875 109.363281 55.683594 108.703125 C 54.652344 106.820312 54.613281 106.917969 54.554688 111.632812 L 54.5 115.898438 L 47.300781 115.898438 L 47.25 104.546875 L 47.195312 93.191406 L 53.898438 93.300781 L 56.722656 98.992188 C 58.277344 102.121094 59.636719 104.710938 59.75 104.75 C 59.859375 104.785156 61.246094 102.203125 62.828125 99.007812 L 65.699219 93.199219 L 72.300781 93.300781 L 72.300781 115.898438 L 64.898438 115.898438 L 64.847656 111.648438 C 64.816406 109.3125 64.726562 107.398438 64.644531 107.398438 C 64.414062 107.398438 64.601562 115.660156 64.839844 115.949219 C 65.128906 116.296875 72.011719 116.308594 72.359375 115.960938 C 72.613281 115.707031 72.726562 93.964844 72.476562 93.316406 C 72.375 93.046875 71.875 93 68.976562 93 L 65.597656 93 L 62.75 98.699219 C 61.183594 101.835938 59.855469 104.398438 59.796875 104.398438 C 59.738281 104.398438 58.410156 101.835938 56.84375 98.699219 L 53.992188 93 L 50.628906 93 C 48.78125 93 47.207031 93.058594 47.132812 93.132812 M 98.105469 93.191406 C 97.957031 93.429688 106.554688 115.84375 106.871094 116.046875 C 107.289062 116.316406 114.128906 116.226562 114.347656 115.949219 C 114.648438 115.574219 121.617188 97.351562 121.507812 97.238281 C 121.453125 97.1875 121.355469 97.3125 121.285156 97.523438 C 121.21875 97.730469 121.089844 98.078125 121 98.300781 C 120.910156 98.519531 120.460938 99.691406 120 100.898438 C 119.539062 102.109375 119.089844 103.28125 119 103.5 C 118.910156 103.71875 118.371094 105.113281 117.800781 106.601562 C 117.230469 108.085938 116.691406 109.480469 116.601562 109.699219 C 116.511719 109.921875 116.058594 111.089844 115.601562 112.300781 C 115.140625 113.511719 114.6875 114.679688 114.597656 114.898438 C 114.507812 115.121094 114.386719 115.460938 114.324219 115.65625 C 114.21875 115.980469 113.90625 116.003906 110.5625 115.953125 L 106.917969 115.898438 L 106.4375 114.699219 C 105.777344 113.070312 105.753906 113.003906 104.800781 110.5 C 104.339844 109.289062 103.890625 108.121094 103.800781 107.898438 C 103.710938 107.679688 103.261719 106.511719 102.800781 105.300781 C 102.339844 104.089844 101.890625 102.921875 101.800781 102.699219 C 101.710938 102.480469 101.269531 101.332031 100.820312 100.148438 C 100.367188 98.96875 99.640625 97.078125 99.199219 95.949219 C 98.023438 92.945312 97.753906 93.199219 102.105469 93.199219 C 105.460938 93.199219 105.824219 93.234375 105.925781 93.550781 C 106.074219 94.011719 106.796875 95.992188 107 96.5 C 107.152344 96.875 107.429688 97.628906 108.398438 100.300781 C 110.195312 105.238281 110.34375 105.601562 110.546875 105.601562 C 110.710938 105.601562 110.882812 105.226562 111.59375 103.300781 C 111.839844 102.640625 112.113281 101.921875 112.199219 101.699219 C 112.289062 101.480469 112.558594 100.761719 112.800781 100.101562 C 113.042969 99.441406 113.3125 98.71875 113.398438 98.5 C 113.488281 98.28125 113.742188 97.605469 113.960938 97 C 114.183594 96.394531 114.429688 95.71875 114.515625 95.5 C 114.597656 95.28125 114.8125 94.695312 114.996094 94.199219 L 115.324219 93.300781 L 119.0625 93.246094 C 123.355469 93.183594 123.097656 93.023438 122.195312 95.210938 C 121.863281 96.015625 121.617188 96.757812 121.652344 96.859375 C 121.6875 96.957031 122.046875 96.207031 122.449219 95.191406 C 122.855469 94.171875 123.140625 93.261719 123.082031 93.171875 C 122.851562 92.796875 115.253906 92.96875 115.105469 93.351562 C 115.027344 93.542969 114.023438 96.214844 112.867188 99.292969 C 111.714844 102.367188 110.71875 104.964844 110.65625 105.066406 C 110.488281 105.339844 110.421875 105.175781 108.195312 99.101562 C 107.0625 96.019531 106.050781 93.386719 105.945312 93.25 C 105.707031 92.941406 98.292969 92.886719 98.105469 93.191406 M 124.800781 93.148438 C 124.800781 93.234375 126.488281 93.300781 128.550781 93.300781 L 132.300781 93.300781 L 132.300781 115.898438 L 128.570312 115.898438 C 126.515625 115.898438 124.878906 115.96875 124.929688 116.050781 C 125.09375 116.3125 132.089844 116.230469 132.359375 115.960938 C 132.613281 115.707031 132.726562 93.964844 132.476562 93.316406 C 132.347656 92.976562 124.800781 92.816406 124.800781 93.148438 M 135.199219 93.148438 C 135.199219 93.230469 139.160156 93.277344 144 93.246094 L 152.800781 93.191406 L 152.800781 98.800781 L 142.800781 98.800781 L 142.800781 101.792969 L 147.75 101.847656 L 152.699219 101.898438 L 152.757812 104.546875 L 152.8125 107.191406 L 142.898438 107.300781 L 142.898438 110.300781 L 147.851562 110.351562 L 152.800781 110.40625 L 152.886719 116.101562 L 152.949219 113.328125 C 153.03125 109.675781 153.53125 110 147.777344 110 L 143 110 L 143 107.601562 L 147.761719 107.601562 C 153.460938 107.601562 153 107.859375 153 104.675781 C 153 101.25 153.582031 101.601562 147.878906 101.601562 L 143 101.601562 L 143 99.007812 L 152.898438 98.898438 L 152.898438 93.101562 L 144.050781 93.046875 C 139.183594 93.019531 135.199219 93.066406 135.199219 93.148438 M 84.179688 99.652344 C 81.5625 101.382812 81.796875 108.269531 84.511719 109.601562 C 87.109375 110.871094 89.199219 108.59375 89.195312 104.5 C 89.195312 100.398438 86.695312 97.984375 84.179688 99.652344 M 87.140625 99.789062 C 89.53125 101.25 89.59375 107.855469 87.226562 109.25 C 84.207031 111.035156 81.699219 107.054688 82.808594 102.242188 C 83.347656 99.894531 85.402344 98.730469 87.140625 99.789062 M 135.371094 116.050781 C 135.457031 116.136719 139.390625 116.179688 144.113281 116.152344 L 152.699219 116.101562 L 143.960938 116 C 139.152344 115.945312 135.289062 115.96875 135.371094 116.050781 M 133.898438 122.722656 C 137.273438 123.15625 138.582031 123.871094 139.609375 125.839844 C 140.058594 126.695312 140.125 126.632812 138.246094 127.1875 L 136.792969 127.621094 L 136.136719 126.925781 C 135.179688 125.910156 133.722656 125.71875 132.699219 126.480469 C 132.113281 126.914062 132.507812 127.40625 133.710938 127.734375 C 134.253906 127.882812 135.058594 128.105469 135.5 128.226562 C 139.253906 129.261719 140.820312 130.886719 140.199219 133.105469 C 139.078125 137.101562 130.945312 137.21875 129.070312 133.261719 C 128.667969 132.417969 128.785156 132.285156 130.269531 131.898438 C 131.824219 131.496094 131.941406 131.511719 132.632812 132.199219 C 133.605469 133.171875 136.679688 132.957031 136.289062 131.945312 C 136.144531 131.566406 135.574219 131.332031 133.5 130.800781 C 129.738281 129.832031 128.652344 128.984375 128.371094 126.800781 L 128.230469 125.699219 L 128.277344 126.949219 C 128.355469 128.996094 129.578125 129.964844 133.398438 131 C 135.859375 131.667969 136.121094 131.800781 135.933594 132.285156 C 135.667969 132.972656 133.445312 132.707031 132.683594 131.894531 L 132.019531 131.191406 L 130.359375 131.652344 C 128.398438 132.195312 128.28125 132.417969 129.191406 133.851562 C 132.324219 138.789062 142.703125 135.953125 140.171875 130.851562 C 139.4375 129.367188 138.25 128.75 133.75 127.507812 C 131.964844 127.011719 132.246094 126.398438 134.257812 126.398438 C 135.164062 126.398438 135.367188 126.484375 136.015625 127.117188 L 136.753906 127.835938 L 138.027344 127.488281 C 139.90625 126.980469 140.226562 126.738281 139.976562 126.023438 C 139.347656 124.210938 137.210938 122.851562 134.800781 122.722656 C 133.976562 122.679688 133.570312 122.679688 133.898438 122.722656 M 48.238281 123.039062 C 48.0625 123.214844 48 124.960938 48 129.636719 L 48 135.992188 L 48.449219 136.105469 C 48.699219 136.167969 49.710938 136.191406 50.699219 136.160156 L 52.5 136.101562 L 52.554688 133.753906 C 52.621094 130.984375 52.316406 131.222656 55.898438 131.148438 L 58.300781 131.101562 L 58.359375 129.617188 C 58.433594 127.757812 58.523438 127.808594 55.25 127.804688 L 52.601562 127.800781 L 52.601562 127.222656 C 52.601562 126.449219 52.789062 126.398438 55.816406 126.398438 L 58.398438 126.398438 L 58.398438 124.839844 C 58.398438 123.894531 58.304688 123.183594 58.160156 123.039062 C 57.820312 122.699219 48.582031 122.699219 48.238281 123.039062 M 63.75 123.332031 C 62.640625 125.769531 59.097656 135.738281 59.261719 135.957031 C 59.40625 136.140625 59.996094 136.199219 61.378906 136.15625 L 63.300781 136.101562 L 64.089844 134.398438 L 68.210938 134.398438 L 68.40625 134.949219 C 68.808594 136.085938 68.828125 136.097656 70.820312 136.152344 C 71.855469 136.179688 72.816406 136.125 72.960938 136.03125 C 73.214844 135.867188 68.914062 123.71875 68.367188 123.058594 C 67.890625 122.488281 64.03125 122.714844 63.75 123.332031 M 74 122.953125 C 74 123.035156 74.722656 123.070312 75.605469 123.03125 C 77.640625 122.9375 77.5 122.816406 79.613281 126.53125 C 81.125 129.191406 81.199219 129.164062 81.199219 125.898438 L 81.199219 123.199219 L 85.199219 123.199219 L 85.199219 136 L 81.835938 136 L 80.316406 133.46875 C 79.484375 132.078125 78.800781 130.855469 78.800781 130.753906 C 78.800781 130.652344 78.6875 130.605469 78.550781 130.648438 C 78.375 130.707031 78.269531 131.5 78.199219 133.316406 L 78.101562 135.898438 L 74.101562 135.898438 L 73.996094 129.601562 L 73.890625 123.300781 L 73.84375 129.511719 C 73.792969 136.742188 73.617188 136.199219 76.023438 136.199219 C 78.554688 136.199219 78.398438 136.378906 78.398438 133.433594 C 78.398438 130.5 78.347656 130.496094 80.09375 133.5 C 81.738281 136.328125 81.578125 136.199219 83.492188 136.199219 C 85.757812 136.199219 85.601562 136.707031 85.601562 129.5 C 85.601562 122.21875 85.8125 122.800781 83.171875 122.800781 C 80.816406 122.800781 80.925781 122.667969 80.800781 125.601562 L 80.699219 127.898438 L 79.464844 125.800781 C 77.554688 122.542969 77.867188 122.800781 75.789062 122.800781 C 74.804688 122.800781 74 122.867188 74 122.953125 M 90.949219 123.332031 C 89.839844 125.769531 86.296875 135.738281 86.464844 135.957031 C 86.605469 136.140625 87.195312 136.199219 88.578125 136.15625 L 90.5 136.101562 L 91.289062 134.398438 L 95.410156 134.398438 L 95.605469 134.949219 C 96.007812 136.085938 96.027344 136.097656 98.019531 136.152344 C 99.054688 136.179688 100.015625 136.125 100.160156 136.03125 C 100.414062 135.867188 96.113281 123.71875 95.566406 123.058594 C 95.089844 122.488281 91.230469 122.714844 90.949219 123.332031 M 101.125 123.25 C 100.882812 124.160156 100.984375 135.707031 101.238281 135.960938 C 101.585938 136.308594 108.140625 136.277344 109.652344 135.921875 C 113.078125 135.117188 114.246094 131.675781 111.757812 129.726562 L 111.109375 129.21875 L 111.542969 128.761719 C 113.328125 126.855469 112.128906 123.644531 109.394531 123.015625 C 107.445312 122.566406 101.261719 122.742188 101.125 123.25 M 118.296875 123.449219 C 117.148438 125.949219 113.640625 135.902344 113.855469 136.042969 C 113.992188 136.128906 114.953125 136.179688 116 136.152344 L 117.898438 136.101562 L 118.296875 135.25 L 118.691406 134.398438 L 122.730469 134.398438 L 123.117188 135.25 L 123.5 136.101562 L 125.398438 136.152344 C 128.160156 136.222656 128.152344 136.765625 125.503906 129.59375 C 122.726562 122.074219 123.242188 122.800781 120.671875 122.800781 L 118.59375 122.800781 L 118.296875 123.449219 M 130.867188 123.21875 C 130.246094 123.457031 129.546875 123.933594 129.117188 124.410156 C 128.445312 125.148438 128.148438 125.777344 128.601562 125.5 C 128.710938 125.433594 128.800781 125.253906 128.800781 125.105469 C 128.800781 124.460938 130.28125 123.558594 132.101562 123.097656 C 132.890625 122.898438 132.976562 122.84375 132.5 122.832031 C 132.171875 122.824219 131.433594 123 130.867188 123.21875 M 141.839844 123.039062 C 141.429688 123.449219 141.503906 135.921875 141.917969 136.078125 C 142.398438 136.261719 151.460938 136.21875 151.757812 136.03125 C 151.945312 135.910156 152 135.414062 151.960938 134.28125 L 151.898438 132.699219 L 149.050781 132.644531 L 146.199219 132.589844 L 146.199219 132 C 146.199219 131.257812 146.371094 131.214844 149.5 131.148438 L 151.898438 131.101562 L 151.960938 129.617188 C 152.035156 127.757812 152.121094 127.808594 148.851562 127.804688 L 146.199219 127.800781 L 146.199219 127.222656 C 146.199219 126.449219 146.390625 126.398438 149.417969 126.398438 L 152 126.398438 L 152 124.839844 C 152 122.683594 152.300781 122.800781 146.800781 122.800781 C 143.394531 122.800781 142.011719 122.867188 141.839844 123.039062 M 58.164062 124.285156 C 58.285156 126.230469 58.324219 126.199219 55.644531 126.203125 C 52.539062 126.207031 52.398438 126.25 52.398438 127.21875 L 52.398438 127.988281 L 55.25 128.042969 L 58.101562 128.101562 L 58.164062 129.085938 C 58.285156 131.042969 58.34375 131 55.511719 131 C 52.152344 131 52.398438 130.789062 52.398438 133.621094 L 52.398438 136 L 48.398438 136 L 48.398438 123.191406 L 58.101562 123.300781 L 58.164062 124.285156 M 68.765625 124.449219 C 69.210938 125.636719 69.433594 126.25 70.417969 128.949219 C 70.648438 129.582031 70.910156 130.28125 71 130.5 C 71.089844 130.71875 71.359375 131.441406 71.597656 132.101562 C 71.839844 132.761719 72.210938 133.738281 72.417969 134.277344 C 73.085938 135.988281 73.078125 136 70.894531 136 C 69.253906 136 68.972656 135.953125 68.878906 135.648438 C 68.820312 135.457031 68.644531 135.007812 68.488281 134.648438 L 68.207031 134 L 66.226562 134 C 64.0625 134 63.886719 134.082031 63.5 135.28125 L 63.300781 135.898438 L 61.515625 135.957031 C 59.0625 136.039062 59.113281 136.085938 59.789062 134.359375 C 60.105469 133.558594 60.640625 132.15625 60.980469 131.25 C 61.320312 130.34375 61.871094 128.878906 62.199219 128 C 62.53125 127.121094 63.078125 125.679688 63.421875 124.800781 L 64.046875 123.199219 L 68.300781 123.199219 L 68.765625 124.449219 M 95.96875 124.449219 C 96.410156 125.636719 96.636719 126.25 97.621094 128.949219 C 97.851562 129.582031 98.113281 130.28125 98.199219 130.5 C 98.289062 130.71875 98.558594 131.441406 98.800781 132.101562 C 99.039062 132.761719 99.410156 133.738281 99.617188 134.277344 C 100.289062 135.988281 100.277344 136 98.09375 136 C 96.453125 136 96.171875 135.953125 96.078125 135.648438 C 96.019531 135.457031 95.84375 135.007812 95.6875 134.648438 L 95.40625 134 L 93.425781 134 C 91.261719 134 91.085938 134.082031 90.699219 135.28125 L 90.5 135.898438 L 88.714844 135.957031 C 86.261719 136.039062 86.316406 136.085938 86.992188 134.359375 C 87.304688 133.558594 87.839844 132.15625 88.179688 131.25 C 88.523438 130.34375 89.070312 128.878906 89.398438 128 C 89.730469 127.121094 90.28125 125.679688 90.621094 124.800781 L 91.246094 123.199219 L 95.503906 123.199219 L 95.96875 124.449219 M 110.378906 123.617188 C 111.585938 124.351562 111.933594 124.878906 112.015625 126.101562 C 112.113281 127.511719 112.011719 127.914062 111.398438 128.601562 C 110.667969 129.421875 110.664062 129.441406 111.351562 129.75 C 112.546875 130.289062 113.214844 132.421875 112.574219 133.664062 C 111.605469 135.550781 109.859375 136.058594 104.699219 135.960938 L 101.300781 135.898438 L 101.246094 129.800781 C 101.21875 126.449219 101.238281 123.589844 101.289062 123.453125 C 101.476562 122.964844 109.546875 123.109375 110.378906 123.617188 M 123.011719 123.601562 C 123.097656 123.765625 123.363281 124.441406 123.601562 125.101562 C 123.84375 125.761719 124.113281 126.480469 124.199219 126.699219 C 124.355469 127.085938 124.777344 128.238281 125.578125 130.449219 C 126.003906 131.617188 127.140625 134.660156 127.402344 135.328125 C 127.648438 135.953125 127.523438 136 125.492188 136 L 123.652344 136 L 123.238281 135 L 122.820312 134 L 120.859375 134.003906 C 118.617188 134.007812 118.582031 134.023438 118.160156 135.101562 L 117.84375 135.898438 L 115.921875 135.957031 C 113.539062 136.027344 113.578125 136.582031 115.601562 131.199219 C 117.03125 127.394531 117.464844 126.230469 117.804688 125.300781 C 118.007812 124.75 118.265625 124.050781 118.382812 123.742188 L 118.59375 123.1875 L 120.726562 123.242188 C 122.375 123.285156 122.890625 123.367188 123.011719 123.601562 M 151.761719 124.285156 C 151.886719 126.230469 151.925781 126.199219 149.246094 126.203125 C 146.136719 126.207031 146 126.25 146 127.21875 L 146 127.988281 L 148.851562 128.042969 L 151.699219 128.101562 L 151.761719 129.085938 C 151.886719 131.046875 151.953125 131 149.046875 131.003906 C 146.144531 131.007812 145.945312 131.074219 146.035156 132.019531 L 146.101562 132.699219 L 148.898438 132.800781 L 151.699219 132.898438 L 151.699219 135.898438 L 146.851562 135.953125 L 142 136.007812 L 142 123.191406 L 146.851562 123.246094 L 151.699219 123.300781 L 151.761719 124.285156 M 105.636719 126.363281 C 105.476562 126.46875 105.398438 126.816406 105.433594 127.222656 C 105.546875 128.371094 108.398438 128.246094 108.398438 127.09375 C 108.398438 126.488281 106.273438 125.925781 105.636719 126.363281 M 107.363281 126.523438 C 108.75 126.800781 108.121094 127.855469 106.628906 127.761719 C 105.921875 127.714844 105.6875 127.613281 105.636719 127.339844 C 105.46875 126.460938 105.9375 126.238281 107.363281 126.523438 M 65.636719 129.078125 C 65.007812 130.914062 65.027344 131 66.117188 131 L 67.035156 131 L 66.90625 130.234375 C 66.769531 129.429688 66.34375 128.078125 66.175781 127.90625 C 66.117188 127.851562 65.878906 128.378906 65.636719 129.078125 M 92.835938 129.078125 C 92.207031 130.914062 92.226562 131 93.316406 131 L 94.234375 131 L 94.105469 130.234375 C 93.96875 129.429688 93.542969 128.078125 93.375 127.90625 C 93.320312 127.851562 93.078125 128.378906 92.835938 129.078125 M 120.339844 128.542969 C 120.28125 128.847656 120.140625 129.453125 120.027344 129.890625 C 119.769531 130.890625 119.847656 131 120.8125 131 C 121.699219 131 121.792969 130.742188 121.375 129.414062 C 120.917969 127.957031 120.519531 127.621094 120.339844 128.542969 M 66.636719 130.117188 C 66.695312 130.648438 66.640625 130.707031 66.03125 130.765625 C 65.464844 130.816406 65.378906 130.773438 65.46875 130.464844 C 65.527344 130.265625 65.6875 129.703125 65.828125 129.214844 L 66.082031 128.332031 L 66.328125 128.933594 C 66.464844 129.265625 66.601562 129.796875 66.636719 130.117188 M 93.835938 130.117188 C 93.894531 130.648438 93.839844 130.707031 93.230469 130.765625 C 92.667969 130.816406 92.582031 130.773438 92.667969 130.464844 C 92.726562 130.265625 92.890625 129.703125 93.027344 129.214844 L 93.285156 128.332031 L 93.527344 128.933594 C 93.664062 129.265625 93.804688 129.796875 93.835938 130.117188 M 120.980469 129.050781 C 121.5 130.433594 121.46875 130.800781 120.828125 130.800781 C 120.042969 130.800781 119.996094 130.683594 120.332031 129.550781 C 120.648438 128.480469 120.738281 128.410156 120.980469 129.050781 M 105.636719 130.972656 C 105.472656 131.078125 105.394531 131.433594 105.4375 131.921875 L 105.5 132.699219 L 106.691406 132.761719 C 108.167969 132.835938 108.84375 132.527344 108.757812 131.816406 C 108.660156 130.984375 106.527344 130.40625 105.636719 130.972656 M 108.480469 131.660156 C 108.835938 132.246094 108.125 132.628906 106.800781 132.558594 C 105.671875 132.496094 105.390625 132.230469 105.679688 131.476562 C 105.855469 131.019531 108.179688 131.171875 108.480469 131.660156 "/>
</g>
</svg>
