<svg width="221" height="68" viewBox="0 0 221 68" fill="none" xmlns="http://www.w3.org/2000/svg">
<path d="M200.022 26.2554V11H139V56.7661H200.022V41.5108L220.362 51.681V16.0851L200.022 26.2554ZM184.766 46.5959H149.17V21.1703H184.766V46.5959Z" fill="#EFEFEF"/>
<path d="M5.568 29.48C4.576 29.48 3.632 29.208 2.736 28.664C1.84 28.088 1.168 27.224 0.72 26.072C0.56 25.656 0.448 25.224 0.384 24.776C0.32 24.296 0.288 23.832 0.288 23.384C0.288 22.936 0.368 22.712 0.528 22.712C0.72 22.712 0.816 22.84 0.816 23.096C0.816 24.6 1.184 25.736 1.92 26.504C2.688 27.272 3.632 27.656 4.752 27.656C5.872 27.656 6.944 27.336 7.968 26.696C9.024 26.056 10 25.24 10.896 24.248C12.368 22.648 13.616 21.032 14.64 19.4C15.664 17.736 16.592 16.04 17.424 14.312C18.288 12.552 19.152 10.728 20.016 8.84C20.56 7.688 21.232 6.68 22.032 5.816C22.864 4.952 23.856 4.36 25.008 4.04L25.056 3.992H22.416C21.296 3.992 20.112 4.04 18.864 4.136C17.616 4.232 16.48 4.44 15.456 4.76C14.464 5.08 13.744 5.56 13.296 6.2C13.008 6.616 12.864 7.096 12.864 7.64C12.864 8.184 13.008 8.712 13.296 9.224C13.584 9.736 13.952 10.104 14.4 10.328C14.464 10.392 14.496 10.44 14.496 10.472C14.496 10.536 14.416 10.616 14.256 10.712C14.128 10.776 13.984 10.792 13.824 10.76C13.568 10.6 13.248 10.344 12.864 9.992C12.48 9.608 12.128 9.208 11.808 8.792C11.52 8.376 11.328 8.024 11.232 7.736C11.104 7.352 11.04 6.968 11.04 6.584C11.04 5.816 11.312 5.192 11.856 4.712C12.432 4.232 13.168 3.864 14.064 3.608C14.96 3.352 15.92 3.176 16.944 3.08C18 2.952 19.008 2.888 19.968 2.888C20.96 2.856 21.808 2.84 22.512 2.84H27.696C27.76 2.84 27.792 2.856 27.792 2.888C27.792 2.984 27.68 3.128 27.456 3.32C27.264 3.48 27.136 3.56 27.072 3.56C26.272 3.72 25.68 4.152 25.296 4.856C24.912 5.528 24.736 6.616 24.768 8.12C24.768 8.12 24.768 8.472 24.768 9.176C24.8 9.88 24.832 10.792 24.864 11.912C24.896 13.032 24.928 14.232 24.96 15.512C24.992 16.792 25.024 18.024 25.056 19.208C25.088 20.392 25.12 21.384 25.152 22.184V22.472L41.808 4.904C42.864 3.784 43.904 2.84 44.928 2.072C45.984 1.272 47.072 0.919999 48.192 1.016C48.224 1.016 48.24 1.032 48.24 1.064C48.272 1.064 48.288 1.064 48.288 1.064C48.288 1.16 48.224 1.272 48.096 1.4C47.968 1.528 47.824 1.608 47.664 1.64C46.832 1.608 46.08 1.928 45.408 2.6C44.736 3.272 44.112 4.072 43.536 5C43.248 5.48 42.816 6.248 42.24 7.304C41.664 8.328 41.008 9.544 40.272 10.952C39.568 12.36 38.848 13.848 38.112 15.416C37.376 16.984 36.688 18.52 36.048 20.024C35.44 21.528 34.944 22.904 34.56 24.152C34.176 25.368 33.984 26.36 33.984 27.128C33.984 28.024 34.288 28.472 34.896 28.472C35.152 28.472 35.424 28.408 35.712 28.28C36.128 28.12 36.592 27.88 37.104 27.56C37.616 27.24 38.08 26.872 38.496 26.456C39.328 25.656 40.064 24.84 40.704 24.008C41.344 23.144 41.728 22.648 41.856 22.52C41.952 22.392 42.032 22.328 42.096 22.328C42.224 22.328 42.288 22.424 42.288 22.616C42.288 22.808 42.224 22.984 42.096 23.144C41.84 23.464 41.408 24.024 40.8 24.824C40.192 25.592 39.472 26.376 38.64 27.176C37.84 27.976 36.976 28.584 36.048 29C35.76 29.128 35.456 29.224 35.136 29.288C34.816 29.384 34.496 29.432 34.176 29.432C33.472 29.432 32.832 29.224 32.256 28.808C31.712 28.36 31.44 27.624 31.44 26.6C31.44 25.608 31.664 24.488 32.112 23.24C32.592 21.96 33.12 20.728 33.696 19.544C34.304 18.328 34.8 17.304 35.184 16.472C35.6 15.608 36.128 14.504 36.768 13.16C37.408 11.816 38.144 10.456 38.976 9.08L25.152 23.672C25.12 23.928 25.008 24.184 24.816 24.44C24.624 24.664 24.32 24.856 23.904 25.016C23.68 25.112 23.376 25.368 22.992 25.784C22.608 26.2 22.352 26.488 22.224 26.648C22.224 26.68 22.176 26.696 22.08 26.696C21.984 26.696 21.888 26.664 21.792 26.6C21.696 26.536 21.664 26.488 21.696 26.456C22.528 25.4 22.96 23.944 22.992 22.088L23.04 20.936C23.104 19.592 23.152 18.184 23.184 16.712C23.216 15.208 23.232 13.816 23.232 12.536C23.264 11.224 23.28 10.168 23.28 9.368C23.28 8.536 23.28 8.12 23.28 8.12C23.28 7.352 23.392 6.68 23.616 6.104C23.84 5.528 24.112 5.032 24.432 4.616C23.888 5.032 23.36 5.528 22.848 6.104C22.336 6.68 21.904 7.32 21.552 8.024C21.072 9.016 20.528 10.296 19.92 11.864C19.312 13.432 18.608 15.096 17.808 16.856C17.04 18.616 16.176 20.344 15.216 22.04C14.288 23.704 13.248 25.144 12.096 26.36C11.296 27.224 10.272 27.96 9.024 28.568C7.808 29.176 6.656 29.48 5.568 29.48ZM43.6837 29.096C43.1717 29.096 42.7077 29 42.2917 28.808C41.9077 28.584 41.7157 28.12 41.7157 27.416C41.7157 26.296 42.0037 25.176 42.5797 24.056C43.1557 22.904 43.7477 21.896 44.3557 21.032C44.8997 20.296 45.5077 19.608 46.1797 18.968C46.8837 18.296 47.6357 17.72 48.4357 17.24C48.9477 16.92 49.6357 16.584 50.4997 16.232C51.3957 15.848 52.1477 15.656 52.7557 15.656C53.2677 15.656 53.7157 15.8 54.0997 16.088C54.4837 16.344 54.6757 16.824 54.6757 17.528C54.6757 18.616 54.3877 19.736 53.8117 20.888C53.2677 22.008 52.6917 23 52.0837 23.864C51.7957 24.248 51.5077 24.616 51.2197 24.968C50.9317 25.288 50.6117 25.624 50.2597 25.976C51.4437 25.976 52.5317 25.64 53.5237 24.968C54.5157 24.264 55.3797 23.416 56.1157 22.424L56.2117 22.328C56.3077 22.328 56.3557 22.424 56.3557 22.616C56.3557 22.84 56.2917 23.048 56.1637 23.24C55.5237 24.136 54.7237 24.936 53.7637 25.64C52.8037 26.312 51.7157 26.648 50.4997 26.648C50.3717 26.648 50.2437 26.648 50.1157 26.648C49.9877 26.648 49.8597 26.632 49.7317 26.6C47.9397 28.264 45.9237 29.096 43.6837 29.096ZM44.9317 28.28C45.3797 28.28 45.8597 28.12 46.3717 27.8C46.9157 27.48 47.3317 27.176 47.6197 26.888C48.1637 26.344 48.6597 25.768 49.1077 25.16C49.5557 24.52 49.9717 23.88 50.3557 23.24C50.8037 22.472 51.2517 21.56 51.6997 20.504C52.1477 19.448 52.3717 18.456 52.3717 17.528C52.3717 16.792 52.1157 16.424 51.6037 16.424C51.1877 16.424 50.6757 16.6 50.0677 16.952C49.4917 17.304 49.0597 17.624 48.7717 17.912C47.6837 19.032 46.7717 20.248 46.0357 21.56C45.6197 22.296 45.1717 23.16 44.6917 24.152C44.2117 25.144 43.9717 26.056 43.9717 26.888C43.9717 27.016 43.9717 27.144 43.9717 27.272C44.0037 27.368 44.0357 27.48 44.0677 27.608C44.1957 28.056 44.4837 28.28 44.9317 28.28ZM60.9949 29.288C60.5469 29.288 60.1629 29.128 59.8429 28.808C59.5229 28.488 59.3629 27.928 59.3629 27.128C59.3629 26.424 59.4109 25.592 59.5069 24.632C59.6349 23.672 59.8109 22.696 60.0349 21.704C60.2589 20.68 60.5149 19.784 60.8029 19.016C60.2589 19.816 59.6509 20.648 58.9789 21.512C58.3069 22.344 57.7469 23.048 57.2989 23.624C57.2029 23.752 57.1229 23.816 57.0589 23.816C56.9949 23.816 56.9629 23.736 56.9629 23.576C56.9629 23.32 57.0429 23.08 57.2029 22.856C57.8749 21.928 58.6269 20.872 59.4589 19.688C60.3229 18.504 61.0589 17.432 61.6669 16.472C62.0189 16.408 62.4349 16.312 62.9149 16.184C63.4269 16.056 63.7949 15.88 64.0189 15.656C64.1789 15.56 64.2749 15.512 64.3069 15.512C64.4029 15.512 64.4509 15.576 64.4509 15.704C64.4509 15.8 64.4029 15.912 64.3069 16.04C64.0189 16.456 63.6989 17.096 63.3469 17.96C63.0269 18.824 62.6909 19.784 62.3389 20.84C62.0189 21.896 61.7469 22.936 61.5229 23.96C61.3309 24.952 61.2349 25.8 61.2349 26.504C61.2349 27.016 61.3149 27.384 61.4749 27.608C61.6349 27.8 61.8429 27.896 62.0989 27.896C62.4509 27.896 62.8669 27.72 63.3469 27.368C63.8589 27.016 64.2909 26.648 64.6429 26.264C65.0909 25.784 65.5869 25.144 66.1309 24.344C66.7069 23.544 67.2349 22.696 67.7149 21.8C68.2269 20.904 68.6109 20.088 68.8669 19.352C69.0589 18.84 69.1869 18.408 69.2509 18.056C69.3149 17.672 69.3469 17.368 69.3469 17.144C69.3469 16.76 69.2989 16.488 69.2029 16.328C69.1069 16.168 69.0269 16.072 68.9629 16.04C68.7709 15.976 68.6749 15.896 68.6749 15.8C68.6749 15.736 68.7389 15.688 68.8669 15.656C68.9949 15.592 69.1229 15.592 69.2509 15.656C69.6669 15.784 70.0829 15.976 70.4989 16.232C70.9149 16.456 71.1229 16.904 71.1229 17.576C71.1229 17.736 71.1069 17.928 71.0749 18.152C71.0429 18.344 70.9789 18.568 70.8829 18.824C70.6909 19.336 70.2909 20.056 69.6829 20.984C69.1069 21.912 68.4349 22.888 67.6669 23.912C66.8989 24.936 66.1309 25.864 65.3629 26.696C64.5949 27.528 63.9229 28.12 63.3469 28.472C62.9629 28.696 62.5629 28.888 62.1469 29.048C61.7309 29.208 61.3469 29.288 60.9949 29.288ZM82.5923 10.664C82.1443 10.664 81.8243 10.52 81.6323 10.232C81.5043 10.072 81.4403 9.864 81.4403 9.608C81.4403 9.096 81.6803 8.68 82.1603 8.36C82.5123 8.168 82.8323 8.072 83.1203 8.072C83.6003 8.072 83.9363 8.216 84.1283 8.504C84.2563 8.664 84.3203 8.872 84.3203 9.128C84.3203 9.64 84.0643 10.056 83.5523 10.376C83.2643 10.568 82.9443 10.664 82.5923 10.664ZM74.2402 29.144C73.9202 29.144 73.6482 29.08 73.4242 28.952C73.2322 28.824 73.1362 28.584 73.1362 28.232C73.1362 27.784 73.2482 27.256 73.4722 26.648C73.7282 26.04 74.0002 25.432 74.2882 24.824C74.6082 24.216 74.8482 23.72 75.0082 23.336C75.2322 22.888 75.5042 22.312 75.8242 21.608C76.1762 20.872 76.4962 20.184 76.7843 19.544C77.1043 18.872 77.3283 18.408 77.4562 18.152C77.0082 18.632 76.4642 19.24 75.8242 19.976C75.2162 20.68 74.6402 21.368 74.0962 22.04C73.5522 22.712 73.1362 23.24 72.8482 23.624C72.7522 23.752 72.6722 23.816 72.6082 23.816C72.5442 23.816 72.5122 23.736 72.5122 23.576C72.5122 23.32 72.5922 23.08 72.7522 22.856C73.3602 22.088 74.0322 21.224 74.7682 20.264C75.5362 19.304 76.2243 18.424 76.8323 17.624C77.4402 16.792 77.8242 16.248 77.9843 15.992C78.3363 15.928 78.8482 15.832 79.5202 15.704C80.2242 15.576 80.7042 15.4 80.9602 15.176C81.0563 15.08 81.1523 15.032 81.2483 15.032C81.3123 15.032 81.3442 15.096 81.3442 15.224C81.3763 15.32 81.3443 15.432 81.2483 15.56C81.0563 15.784 80.7202 16.328 80.2402 17.192C79.7602 18.056 79.2483 19.016 78.7043 20.072C78.1923 21.096 77.7123 22.024 77.2643 22.856C76.8163 23.72 76.4323 24.552 76.1123 25.352C75.7922 26.152 75.6322 26.728 75.6322 27.08C75.6322 27.528 75.8562 27.752 76.3043 27.752C76.7203 27.752 77.2483 27.496 77.8883 26.984C78.5603 26.472 79.2322 25.864 79.9042 25.16C80.5763 24.424 81.1683 23.752 81.6802 23.144C81.8403 22.952 82.0323 22.728 82.2563 22.472C82.5123 22.184 82.6723 22.008 82.7362 21.944C82.8003 22.008 82.8323 22.12 82.8323 22.28C82.8003 22.504 82.7203 22.728 82.5923 22.952C82.4643 23.144 82.3363 23.32 82.2083 23.48C81.5363 24.312 80.8003 25.176 80.0003 26.072C79.2002 26.936 78.3202 27.672 77.3602 28.28C76.4002 28.856 75.3602 29.144 74.2402 29.144ZM86.0186 29.384C84.7066 29.384 83.7946 29.128 83.2826 28.616C82.7706 28.104 82.5146 27.48 82.5146 26.744C82.5146 25.816 82.7546 24.824 83.2346 23.768C83.7466 22.712 84.2266 21.816 84.6746 21.08C85.1866 20.312 85.8746 19.512 86.7386 18.68C87.6026 17.848 88.5466 17.144 89.5706 16.568C90.5946 15.992 91.5866 15.704 92.5466 15.704C93.3786 15.704 93.9546 15.912 94.2746 16.328C94.5946 16.712 94.7546 17.176 94.7546 17.72C94.7546 18.712 94.4506 19.528 93.8426 20.168C93.2666 20.808 92.5466 21.336 91.6826 21.752C90.8186 22.136 89.9866 22.456 89.1866 22.712C88.7066 22.84 88.1466 22.968 87.5066 23.096C86.8666 23.224 86.2586 23.288 85.6826 23.288C85.4586 23.864 85.2826 24.424 85.1546 24.968C85.0266 25.512 84.9626 26.008 84.9626 26.456C84.9626 27 85.0906 27.448 85.3466 27.8C85.6346 28.152 86.0986 28.328 86.7386 28.328C86.9946 28.328 87.2986 28.296 87.6506 28.232C88.0026 28.168 88.3866 28.072 88.8026 27.944C89.7626 27.624 90.7066 27.112 91.6346 26.408C92.5626 25.704 93.4106 24.952 94.1786 24.152C94.9786 23.32 95.5866 22.632 96.0026 22.088C96.0986 22.184 96.1466 22.296 96.1466 22.424C96.1466 22.584 96.0346 22.84 95.8106 23.192C95.1706 24.088 94.3386 25.016 93.3146 25.976C92.2906 26.936 91.1546 27.752 89.9066 28.424C88.6586 29.064 87.3626 29.384 86.0186 29.384ZM86.0666 22.328C86.4826 22.36 86.9466 22.36 87.4586 22.328C88.0026 22.264 88.5306 22.152 89.0426 21.992C90.3546 21.608 91.2986 21 91.8746 20.168C92.4826 19.304 92.7866 18.536 92.7866 17.864C92.7866 17.48 92.7066 17.16 92.5466 16.904C92.3866 16.648 92.1306 16.52 91.7786 16.52C90.8506 16.52 90.0186 16.872 89.2826 17.576C88.5466 18.248 87.9066 19.032 87.3626 19.928C86.8186 20.824 86.3866 21.624 86.0666 22.328ZM6.768 67.824C5.776 67.824 4.832 67.536 3.936 66.96C3.04 66.416 2.368 65.568 1.92 64.416C1.76 64 1.648 63.552 1.584 63.072C1.552 62.592 1.536 62.128 1.536 61.68V61.056C1.536 60.832 1.552 60.624 1.584 60.432C1.648 60.24 1.776 60.144 1.968 60.144C2.032 60.144 2.064 60.176 2.064 60.24C2.064 60.432 2.048 60.624 2.016 60.816C2.016 61.008 2.016 61.2 2.016 61.392C2.016 62.896 2.384 64.048 3.12 64.848C3.888 65.616 4.832 66 5.952 66C7.072 66 8.16 65.68 9.216 65.04C10.272 64.368 11.248 63.536 12.144 62.544C12.656 62 13.232 61.184 13.872 60.096C14.544 58.976 15.232 57.728 15.936 56.352C16.672 54.944 17.408 53.504 18.144 52.032C18.88 50.528 19.584 49.088 20.256 47.712C20.928 46.304 21.536 45.072 22.08 44.016C22.592 43.024 23.28 42.24 24.144 41.664C25.008 41.088 25.744 40.688 26.352 40.464C26.128 40.464 25.648 40.48 24.912 40.512C24.208 40.544 23.456 40.576 22.656 40.608C21.856 40.64 21.216 40.672 20.736 40.704C19.52 40.768 18.288 40.912 17.04 41.136C15.792 41.36 14.688 41.664 13.728 42.048C12.768 42.432 12.08 42.928 11.664 43.536C11.376 43.952 11.232 44.432 11.232 44.976C11.232 46.064 11.712 46.848 12.672 47.328C12.736 47.392 12.768 47.424 12.768 47.424C12.768 47.52 12.688 47.616 12.528 47.712C12.368 47.776 12.208 47.792 12.048 47.76C11.792 47.6 11.472 47.344 11.088 46.992C10.736 46.608 10.4 46.208 10.08 45.792C9.792 45.376 9.6 45.024 9.504 44.736C9.344 44.256 9.264 43.872 9.264 43.584C9.264 42.816 9.552 42.192 10.128 41.712C10.704 41.2 11.456 40.816 12.384 40.56C13.312 40.272 14.304 40.08 15.36 39.984C16.416 39.856 17.44 39.776 18.432 39.744C19.424 39.712 20.272 39.696 20.976 39.696C22.608 39.696 24.064 39.696 25.344 39.696C26.656 39.664 27.856 39.648 28.944 39.648C30.064 39.648 31.136 39.664 32.16 39.696C33.216 39.728 34.32 39.776 35.472 39.84C36.304 39.872 36.864 40.032 37.152 40.32C37.472 40.608 37.632 40.96 37.632 41.376C37.632 41.92 37.456 42.512 37.104 43.152C36.752 43.792 36.432 44.384 36.144 44.928C36.016 45.184 35.808 45.376 35.52 45.504C35.232 45.6 35.12 45.504 35.184 45.216C35.248 44.928 35.312 44.624 35.376 44.304C35.44 43.952 35.472 43.616 35.472 43.296C35.472 42.72 35.36 42.208 35.136 41.76C34.912 41.28 34.528 40.944 33.984 40.752C33.664 40.624 33.28 40.544 32.832 40.512C32.384 40.448 31.904 40.416 31.392 40.416C30.432 40.416 29.472 40.512 28.512 40.704C27.552 40.896 26.8 41.2 26.256 41.616C25.584 42.128 24.896 42.96 24.192 44.112C23.52 45.264 22.88 46.496 22.272 47.808C21.664 49.12 21.12 50.272 20.64 51.264C20.608 51.328 20.592 51.424 20.592 51.552C20.592 51.712 20.736 51.792 21.024 51.792C21.472 51.792 22.096 51.792 22.896 51.792C23.728 51.792 24.592 51.808 25.488 51.84C26.384 51.84 27.152 51.84 27.792 51.84C28.496 51.84 29.056 51.888 29.472 51.984C29.888 52.048 30.096 52.256 30.096 52.608C30.096 52.736 30.016 52.992 29.856 53.376C29.632 53.888 29.376 54.336 29.088 54.72C28.832 55.072 28.624 55.44 28.464 55.824C28.432 55.952 28.288 56.064 28.032 56.16C27.776 56.256 27.68 56.24 27.744 56.112C27.872 55.824 28 55.472 28.128 55.056C28.288 54.608 28.368 54.224 28.368 53.904C28.368 53.392 28.144 53.136 27.696 53.136H20.208C19.92 53.136 19.696 53.264 19.536 53.52C18.608 55.376 17.6 57.36 16.512 59.472C15.456 61.584 14.224 63.392 12.816 64.896C12.016 65.76 11.088 66.464 10.032 67.008C8.976 67.552 7.888 67.824 6.768 67.824ZM37.5375 66.144C37.2175 66.144 36.9455 66.08 36.7215 65.952C36.4975 65.824 36.3855 65.584 36.3855 65.232C36.3855 64.784 36.4975 64.272 36.7215 63.696C36.9455 63.12 37.2015 62.56 37.4895 62.016C37.7775 61.44 38.0335 60.976 38.2575 60.624C37.1375 61.808 35.9695 62.928 34.7535 63.984C34.1455 64.496 33.4735 64.976 32.7375 65.424C32.0015 65.872 31.2175 66.096 30.3855 66.096C30.0655 66.096 29.8415 66 29.7135 65.808C29.5855 65.584 29.5215 65.328 29.5215 65.04C29.5215 64.88 29.5375 64.768 29.5695 64.704C29.7295 63.456 30.1295 62.16 30.7695 60.816C31.4095 59.472 32.1935 58.208 33.1215 57.024C34.0495 55.84 34.9935 54.88 35.9535 54.144C37.0415 53.312 38.2415 52.896 39.5535 52.896H45.0735C45.2335 52.896 45.3135 52.96 45.3135 53.088C45.3135 53.344 45.1695 53.472 44.8815 53.472C44.5615 53.472 44.2415 53.68 43.9215 54.096C43.6015 54.48 43.3615 54.8 43.2015 55.056C42.9775 55.408 42.6255 56 42.1455 56.832C41.6655 57.664 41.1695 58.576 40.6575 59.568C40.1775 60.528 39.7615 61.424 39.4095 62.256C39.0575 63.088 38.8815 63.696 38.8815 64.08C38.8815 64.528 39.1055 64.752 39.5535 64.752C40.0335 64.752 40.5775 64.528 41.1855 64.08C41.7935 63.632 42.4015 63.088 43.0095 62.448C43.6495 61.776 44.2255 61.12 44.7375 60.48C45.2815 59.808 45.7135 59.28 46.0335 58.896C46.2255 59.088 46.2095 59.36 45.9855 59.712C45.7935 60.032 45.6175 60.288 45.4575 60.48C44.8175 61.312 44.0815 62.176 43.2495 63.072C42.4175 63.936 41.5055 64.672 40.5135 65.28C39.5535 65.856 38.5615 66.144 37.5375 66.144ZM32.3535 64.464C32.7375 64.464 33.2655 64.192 33.9375 63.648C34.6415 63.072 35.3935 62.368 36.1935 61.536C36.9935 60.672 37.7455 59.776 38.4495 58.848C39.1535 57.888 39.7295 57.024 40.1775 56.256C40.6575 55.456 40.8975 54.848 40.8975 54.432C40.8975 54.08 40.7855 53.84 40.5615 53.712C40.3695 53.584 40.1135 53.52 39.7935 53.52C39.2815 53.52 38.7215 53.712 38.1135 54.096C37.5375 54.448 37.0735 54.8 36.7215 55.152C36.3375 55.504 35.8735 56.064 35.3295 56.832C34.8175 57.568 34.3055 58.384 33.7935 59.28C33.2815 60.176 32.8495 61.04 32.4975 61.872C32.1455 62.704 31.9695 63.376 31.9695 63.888C31.9695 64.272 32.0975 64.464 32.3535 64.464ZM46.8469 66.72C46.7189 66.72 46.7189 66.576 46.8469 66.288C47.0069 66 47.1509 65.68 47.2789 65.328C47.4389 64.976 47.5989 64.592 47.7589 64.176C48.0789 63.408 48.4309 62.544 48.8149 61.584C49.1989 60.624 49.5669 59.696 49.9189 58.8C50.2709 57.872 50.5749 57.088 50.8309 56.448C51.1189 55.776 51.3109 55.344 51.4069 55.152C50.9589 55.632 50.4149 56.24 49.7749 56.976C49.1669 57.68 48.5909 58.368 48.0469 59.04C47.5029 59.712 47.0869 60.24 46.7989 60.624C46.7029 60.752 46.6229 60.816 46.5589 60.816C46.4949 60.816 46.4629 60.736 46.4629 60.576C46.4629 60.32 46.5429 60.08 46.7029 59.856C47.3109 59.088 47.9829 58.224 48.7189 57.264C49.4869 56.304 50.1749 55.424 50.7829 54.624C51.3909 53.792 51.7749 53.248 51.9349 52.992C52.2869 52.928 52.7989 52.832 53.4709 52.704C54.1749 52.576 54.6549 52.4 54.9109 52.176C55.0069 52.08 55.1029 52.032 55.1989 52.032C55.2629 52.032 55.2949 52.096 55.2949 52.224C55.3269 52.32 55.2949 52.432 55.1989 52.56C55.0069 52.784 54.6709 53.312 54.1909 54.144C53.7429 54.944 53.2469 55.84 52.7029 56.832C52.1909 57.824 51.7109 58.72 51.2629 59.52C51.6469 59.008 52.0629 58.512 52.5109 58.032C52.9589 57.552 53.3909 57.088 53.8069 56.64C54.1909 56.256 54.7189 55.776 55.3909 55.2C56.0629 54.624 56.7669 54.096 57.5029 53.616C58.2389 53.136 58.8789 52.864 59.4229 52.8C59.5509 52.768 59.6629 52.752 59.7589 52.752C59.8869 52.752 59.9829 52.752 60.0469 52.752C60.7509 52.752 61.1029 53.008 61.1029 53.52C61.1029 53.904 60.8949 54.416 60.4789 55.056C60.2549 55.408 59.9029 56 59.4229 56.832C58.9749 57.632 58.5109 58.512 58.0309 59.472C57.5829 60.4 57.1829 61.28 56.8309 62.112C56.5109 62.912 56.3509 63.504 56.3509 63.888C56.3509 64.336 56.5749 64.56 57.0229 64.56C57.5669 64.56 58.1589 64.288 58.7989 63.744C59.4709 63.2 60.1909 62.512 60.9589 61.68C61.7269 60.816 62.4949 59.904 63.2629 58.944C63.3269 59.008 63.3589 59.12 63.3589 59.28C63.3589 59.504 63.2789 59.728 63.1189 59.952C62.9909 60.144 62.8629 60.32 62.7349 60.48C62.4149 60.896 61.9829 61.424 61.4389 62.064C60.9269 62.672 60.3989 63.28 59.8549 63.888C59.3109 64.464 58.8149 64.928 58.3669 65.28C58.0469 65.504 57.6309 65.744 57.1189 66C56.6069 66.256 56.0949 66.384 55.5829 66.384C55.0069 66.384 54.6069 66.24 54.3829 65.952C54.1589 65.632 54.0469 65.248 54.0469 64.8C54.0469 64.288 54.1429 63.744 54.3349 63.168C54.5269 62.592 54.7349 62.048 54.9589 61.536C55.2149 60.992 55.4069 60.592 55.5349 60.336C56.1109 59.216 56.6389 58.16 57.1189 57.168C57.5989 56.176 57.9349 55.472 58.1269 55.056C58.2229 54.864 58.2709 54.704 58.2709 54.576C58.2709 54.352 58.0949 54.336 57.7429 54.528C57.3909 54.72 56.9589 55.008 56.4469 55.392C55.9669 55.776 55.5189 56.16 55.1029 56.544C54.6869 56.896 54.4149 57.136 54.2869 57.264C53.1029 58.512 52.0629 59.904 51.1669 61.44C50.3029 62.944 49.5669 64.496 48.9589 66.096C48.5429 66.128 48.1269 66.24 47.7109 66.432C47.2949 66.624 47.0069 66.72 46.8469 66.72ZM70.3706 66.144C70.0506 66.144 69.7786 66.08 69.5546 65.952C69.3306 65.824 69.2186 65.584 69.2186 65.232C69.2186 64.784 69.3306 64.272 69.5546 63.696C69.7786 63.12 70.0346 62.56 70.3226 62.016C70.6106 61.44 70.8666 60.976 71.0906 60.624C69.9706 61.808 68.8026 62.928 67.5866 63.984C66.9786 64.496 66.3066 64.976 65.5706 65.424C64.8346 65.872 64.0506 66.096 63.2186 66.096C62.8986 66.096 62.6746 66 62.5466 65.808C62.4186 65.584 62.3546 65.328 62.3546 65.04C62.3546 64.88 62.3706 64.768 62.4026 64.704C62.5626 63.456 62.9626 62.16 63.6026 60.816C64.2426 59.472 65.0266 58.208 65.9546 57.024C66.8826 55.84 67.8266 54.88 68.7866 54.144C69.8746 53.312 71.0746 52.896 72.3866 52.896H77.9066C78.0666 52.896 78.1466 52.96 78.1466 53.088C78.1466 53.344 78.0026 53.472 77.7146 53.472C77.3946 53.472 77.0746 53.68 76.7546 54.096C76.4346 54.48 76.1946 54.8 76.0346 55.056C75.8106 55.408 75.4586 56 74.9786 56.832C74.4986 57.664 74.0026 58.576 73.4906 59.568C73.0106 60.528 72.5946 61.424 72.2426 62.256C71.8906 63.088 71.7146 63.696 71.7146 64.08C71.7146 64.528 71.9386 64.752 72.3866 64.752C72.8666 64.752 73.4106 64.528 74.0186 64.08C74.6266 63.632 75.2346 63.088 75.8426 62.448C76.4826 61.776 77.0586 61.12 77.5706 60.48C78.1146 59.808 78.5466 59.28 78.8666 58.896C79.0586 59.088 79.0426 59.36 78.8186 59.712C78.6266 60.032 78.4506 60.288 78.2906 60.48C77.6506 61.312 76.9146 62.176 76.0826 63.072C75.2506 63.936 74.3386 64.672 73.3466 65.28C72.3866 65.856 71.3946 66.144 70.3706 66.144ZM65.1866 64.464C65.5706 64.464 66.0986 64.192 66.7706 63.648C67.4746 63.072 68.2266 62.368 69.0266 61.536C69.8266 60.672 70.5786 59.776 71.2826 58.848C71.9866 57.888 72.5626 57.024 73.0106 56.256C73.4906 55.456 73.7306 54.848 73.7306 54.432C73.7306 54.08 73.6186 53.84 73.3946 53.712C73.2026 53.584 72.9466 53.52 72.6266 53.52C72.1146 53.52 71.5546 53.712 70.9466 54.096C70.3706 54.448 69.9066 54.8 69.5546 55.152C69.1706 55.504 68.7066 56.064 68.1626 56.832C67.6506 57.568 67.1386 58.384 66.6266 59.28C66.1146 60.176 65.6826 61.04 65.3306 61.872C64.9786 62.704 64.8026 63.376 64.8026 63.888C64.8026 64.272 64.9306 64.464 65.1866 64.464ZM81.408 66.432C80.992 66.432 80.496 66.352 79.92 66.192C79.344 66.064 79.056 65.712 79.056 65.136C79.056 64.912 79.104 64.656 79.2 64.368C79.296 64.08 79.392 63.824 79.488 63.6C79.808 62.768 80.144 61.92 80.496 61.056C80.848 60.192 81.216 59.312 81.6 58.416C81.184 58.896 80.784 59.344 80.4 59.76C80.048 60.144 79.792 60.432 79.632 60.624C79.536 60.752 79.456 60.816 79.392 60.816C79.328 60.816 79.296 60.736 79.296 60.576C79.296 60.32 79.376 60.08 79.536 59.856C79.984 59.28 80.496 58.672 81.072 58.032C81.648 57.392 82.208 56.72 82.752 56.016C84.096 53.2 85.6 50.48 87.264 47.856C88.928 45.2 90.8 42.848 92.88 40.8C93.52 40.192 94.24 39.568 95.04 38.928C95.84 38.288 96.688 37.744 97.584 37.296C98.512 36.848 99.424 36.624 100.32 36.624C100.8 36.624 101.232 36.752 101.616 37.008C102.032 37.264 102.256 37.664 102.288 38.208V39.6C102.288 39.728 102.192 39.792 102 39.792C101.904 39.792 101.856 39.76 101.856 39.696C101.856 39.184 101.632 38.848 101.184 38.688C100.736 38.496 100.288 38.4 99.84 38.4C98.08 38.4 96.496 38.864 95.088 39.792C93.68 40.688 92.432 41.872 91.344 43.344C90.256 44.784 89.28 46.384 88.416 48.144C87.552 49.872 86.768 51.584 86.064 53.28C85.392 54.944 84.752 56.432 84.144 57.744C84.144 57.744 84.144 57.776 84.144 57.84C84.144 57.904 84.16 57.936 84.192 57.936C84.224 57.936 84.48 57.696 84.96 57.216C85.472 56.704 86.096 56.112 86.832 55.44C87.6 54.768 88.4 54.192 89.232 53.712C90.064 53.2 90.832 52.944 91.536 52.944C91.888 52.944 92.112 53.072 92.208 53.328C92.304 53.552 92.352 53.808 92.352 54.096V54.528C92.192 55.712 91.776 56.992 91.104 58.368C90.464 59.744 89.632 61.056 88.608 62.304C87.616 63.52 86.496 64.512 85.248 65.28C84.032 66.048 82.752 66.432 81.408 66.432ZM82.176 65.616C82.688 65.616 83.232 65.424 83.808 65.04C84.416 64.624 84.88 64.256 85.2 63.936C85.584 63.584 86.048 63.04 86.592 62.304C87.136 61.536 87.664 60.704 88.176 59.808C88.688 58.912 89.12 58.048 89.472 57.216C89.824 56.384 90 55.712 90 55.2C90 55.04 89.968 54.896 89.904 54.768C89.84 54.64 89.728 54.576 89.568 54.576C89.28 54.576 88.896 54.752 88.416 55.104C87.968 55.456 87.472 55.888 86.928 56.4C86.416 56.88 85.936 57.36 85.488 57.84C85.072 58.288 84.768 58.624 84.576 58.848C84.224 59.232 83.776 59.792 83.232 60.528C82.688 61.264 82.192 62.016 81.744 62.784C81.328 63.52 81.12 64.144 81.12 64.656C81.12 65.296 81.472 65.616 82.176 65.616ZM100.251 66.144C99.9306 66.144 99.6586 66.08 99.4346 65.952C99.2106 65.824 99.0986 65.584 99.0986 65.232C99.0986 64.784 99.2106 64.272 99.4346 63.696C99.6586 63.12 99.9146 62.56 100.203 62.016C100.491 61.44 100.747 60.976 100.971 60.624C99.8506 61.808 98.6826 62.928 97.4666 63.984C96.8586 64.496 96.1866 64.976 95.4506 65.424C94.7146 65.872 93.9306 66.096 93.0986 66.096C92.7786 66.096 92.5546 66 92.4266 65.808C92.2986 65.584 92.2346 65.328 92.2346 65.04C92.2346 64.88 92.2506 64.768 92.2826 64.704C92.4426 63.456 92.8426 62.16 93.4826 60.816C94.1226 59.472 94.9066 58.208 95.8346 57.024C96.7626 55.84 97.7066 54.88 98.6666 54.144C99.7546 53.312 100.955 52.896 102.267 52.896H107.787C107.947 52.896 108.027 52.96 108.027 53.088C108.027 53.344 107.883 53.472 107.595 53.472C107.275 53.472 106.955 53.68 106.635 54.096C106.315 54.48 106.075 54.8 105.915 55.056C105.691 55.408 105.339 56 104.859 56.832C104.379 57.664 103.883 58.576 103.371 59.568C102.891 60.528 102.475 61.424 102.123 62.256C101.771 63.088 101.595 63.696 101.595 64.08C101.595 64.528 101.819 64.752 102.267 64.752C102.747 64.752 103.291 64.528 103.899 64.08C104.507 63.632 105.115 63.088 105.723 62.448C106.363 61.776 106.939 61.12 107.451 60.48C107.995 59.808 108.427 59.28 108.747 58.896C108.939 59.088 108.923 59.36 108.699 59.712C108.507 60.032 108.331 60.288 108.171 60.48C107.531 61.312 106.795 62.176 105.963 63.072C105.131 63.936 104.219 64.672 103.227 65.28C102.267 65.856 101.275 66.144 100.251 66.144ZM95.0666 64.464C95.4506 64.464 95.9786 64.192 96.6506 63.648C97.3546 63.072 98.1066 62.368 98.9066 61.536C99.7066 60.672 100.459 59.776 101.163 58.848C101.867 57.888 102.443 57.024 102.891 56.256C103.371 55.456 103.611 54.848 103.611 54.432C103.611 54.08 103.499 53.84 103.275 53.712C103.083 53.584 102.827 53.52 102.507 53.52C101.995 53.52 101.435 53.712 100.827 54.096C100.251 54.448 99.7866 54.8 99.4346 55.152C99.0506 55.504 98.5866 56.064 98.0426 56.832C97.5306 57.568 97.0186 58.384 96.5066 59.28C95.9946 60.176 95.5626 61.04 95.2106 61.872C94.8586 62.704 94.6826 63.376 94.6826 63.888C94.6826 64.272 94.8106 64.464 95.0666 64.464ZM112.152 66.768C111.576 66.768 110.968 66.688 110.328 66.528C109.688 66.368 109.112 66.112 108.6 65.76C108.12 65.376 107.8 64.864 107.64 64.224C107.608 64.128 107.592 63.984 107.592 63.792C107.592 63.344 107.688 62.848 107.88 62.304C108.104 61.76 108.376 61.376 108.696 61.152C108.824 61.088 108.92 61.088 108.984 61.152C109.08 61.216 109.096 61.28 109.032 61.344C109 61.44 108.952 61.568 108.888 61.728C108.824 61.856 108.776 62 108.744 62.16C108.648 62.992 108.824 63.728 109.272 64.368C109.464 64.624 109.688 64.864 109.944 65.088C110.232 65.312 110.504 65.504 110.76 65.664C110.984 65.792 111.256 65.888 111.576 65.952C111.896 65.984 112.216 66 112.536 66C113.048 66 113.544 65.936 114.024 65.808C114.504 65.68 114.856 65.472 115.08 65.184C115.496 64.672 115.704 64.096 115.704 63.456C115.704 62.976 115.576 62.464 115.32 61.92C115.064 61.376 114.664 60.8 114.12 60.192C113.768 59.808 113.432 59.392 113.112 58.944C112.792 58.496 112.584 58.016 112.488 57.504C112.456 57.408 112.424 57.312 112.392 57.216C112.392 57.12 112.392 57.024 112.392 56.928C111.976 57.536 111.544 58.112 111.096 58.656C110.68 59.168 110.312 59.616 109.992 60C109.864 60.192 109.752 60.288 109.656 60.288C109.592 60.288 109.56 60.224 109.56 60.096C109.56 59.808 109.688 59.504 109.944 59.184C110.2 58.896 110.488 58.544 110.808 58.128C111.128 57.68 111.384 57.328 111.576 57.072C112.12 56.272 112.52 55.648 112.776 55.2C113.064 54.72 113.368 54.288 113.688 53.904C114.04 53.488 114.472 53.152 114.984 52.896C115.528 52.64 116.088 52.512 116.664 52.512C117.336 52.512 117.944 52.624 118.488 52.848C119.064 53.04 119.368 53.552 119.4 54.384C119.4 54.768 119.32 55.168 119.16 55.584C119.032 55.968 118.888 56.336 118.728 56.688C118.632 56.88 118.488 57.024 118.296 57.12C118.136 57.184 118.056 57.152 118.056 57.024C118.056 56.896 118.072 56.752 118.104 56.592C118.136 56.432 118.152 56.288 118.152 56.16C118.152 55.616 118.056 55.136 117.864 54.72C117.704 54.272 117.464 53.952 117.144 53.76C116.824 53.536 116.488 53.424 116.136 53.424C115.624 53.424 115.128 53.632 114.648 54.048C114.168 54.432 113.928 54.944 113.928 55.584C113.928 55.648 113.928 55.728 113.928 55.824C113.928 55.92 113.944 56 113.976 56.064C114.104 56.576 114.488 57.152 115.128 57.792C115.768 58.432 116.264 58.992 116.616 59.472C117.224 60.304 117.528 61.152 117.528 62.016C117.528 62.88 117.272 63.68 116.76 64.416C116.28 65.12 115.624 65.68 114.792 66.096C113.992 66.544 113.112 66.768 112.152 66.768ZM124.604 66.384C123.292 66.384 122.38 66.128 121.868 65.616C121.356 65.104 121.1 64.48 121.1 63.744C121.1 62.816 121.34 61.824 121.82 60.768C122.332 59.712 122.812 58.816 123.26 58.08C123.772 57.312 124.46 56.512 125.324 55.68C126.188 54.848 127.132 54.144 128.156 53.568C129.18 52.992 130.172 52.704 131.132 52.704C131.964 52.704 132.54 52.912 132.86 53.328C133.18 53.712 133.34 54.176 133.34 54.72C133.34 55.712 133.036 56.528 132.428 57.168C131.852 57.808 131.132 58.336 130.268 58.752C129.404 59.136 128.572 59.456 127.772 59.712C127.292 59.84 126.732 59.968 126.092 60.096C125.452 60.224 124.844 60.288 124.268 60.288C124.044 60.864 123.868 61.424 123.74 61.968C123.612 62.512 123.548 63.008 123.548 63.456C123.548 64 123.676 64.448 123.932 64.8C124.22 65.152 124.684 65.328 125.324 65.328C125.58 65.328 125.884 65.296 126.236 65.232C126.588 65.168 126.972 65.072 127.388 64.944C128.348 64.624 129.292 64.112 130.22 63.408C131.148 62.704 131.996 61.952 132.764 61.152C133.564 60.32 134.172 59.632 134.588 59.088C134.684 59.184 134.732 59.296 134.732 59.424C134.732 59.584 134.62 59.84 134.396 60.192C133.756 61.088 132.924 62.016 131.9 62.976C130.876 63.936 129.74 64.752 128.492 65.424C127.244 66.064 125.948 66.384 124.604 66.384ZM124.652 59.328C125.068 59.36 125.532 59.36 126.044 59.328C126.588 59.264 127.116 59.152 127.628 58.992C128.94 58.608 129.884 58 130.46 57.168C131.068 56.304 131.372 55.536 131.372 54.864C131.372 54.48 131.292 54.16 131.132 53.904C130.972 53.648 130.716 53.52 130.364 53.52C129.436 53.52 128.604 53.872 127.868 54.576C127.132 55.248 126.492 56.032 125.948 56.928C125.404 57.824 124.972 58.624 124.652 59.328Z" fill="white"/>
</svg>
